<svg width="1591" height="1886" viewBox="0 0 1591 1886" fill="none" xmlns="http://www.w3.org/2000/svg">
<path d="M6.87216 509.373C10.7407 509.88 14.9923 508.65 18.5042 509.878C22.0161 511.106 25.1821 513.855 28.5028 515.645C31.8477 517.42 35.148 519.286 38.3043 521.46C41.4607 523.635 45.0053 525.199 48.0103 527.557C51.0152 529.916 53.0873 533.393 56.0681 535.766C59.0488 538.139 61.7407 540.904 64.7902 543.172C67.8397 545.441 72.1609 545.782 75.3683 547.766C79.0498 549.734 81.7023 553.715 85.524 555.312C89.3596 556.933 93.6233 557.566 97.5546 558.906C101.486 560.246 105.863 560.072 109.87 561.208C113.876 562.344 117.831 563.445 121.868 564.466C125.905 565.488 129.826 566.866 133.859 567.825C137.893 568.785 141.695 570.683 145.732 571.704C149.755 572.702 154.149 572.389 158.166 573.486C162.159 574.598 166.108 576.025 170.049 577.327C173.931 578.47 177.74 579.655 181.673 580.608C185.606 581.561 189.203 583.996 193.177 584.796C197.151 585.597 201.155 586.282 205.146 586.944C209.136 587.605 213.328 587.054 217.325 587.616C221.322 588.177 225.3 589.039 229.307 589.562C233.314 590.085 237.258 591.225 241.275 591.71C245.293 592.194 249.373 592.063 253.39 592.548C257.407 593.033 261.358 594.072 265.365 594.595C269.372 595.118 273.577 594.366 277.564 594.965C281.551 595.564 285.515 596.628 289.482 597.303C293.448 597.979 297.165 600.12 301.114 600.934C305.064 601.748 309.445 600.798 313.354 601.764C317.276 602.755 320.846 605.143 324.717 606.324C328.705 607.148 333.005 606.728 336.863 607.886C340.745 609.029 344.334 611.115 348.13 612.501C351.902 613.901 355.469 615.838 359.205 617.453C362.902 619.057 366.842 620.135 370.523 621.878C374.203 623.621 377.609 625.78 381.231 627.589C384.853 629.398 388.618 630.899 392.216 632.722C395.828 634.569 399.227 636.829 402.835 638.614C406.587 640.09 410.428 641.386 414.204 642.848C417.98 644.31 421.633 646.005 425.409 647.467C429.185 648.929 433.042 650.086 436.819 651.549C440.595 653.011 444.001 655.396 447.753 656.872C451.505 658.348 456.03 657.927 459.772 659.441C463.538 660.942 467.369 662.275 471.086 663.804C474.804 665.332 478.584 666.856 482.315 668.409C486.047 669.961 488.984 673.487 492.705 675.077C496.581 676.321 500.804 676.494 504.703 677.498C508.616 678.527 512.339 680.568 516.264 681.396C520.228 682.234 524.576 680.948 528.58 681.634C532.571 682.296 536.407 683.917 540.414 684.44C544.421 684.963 548.537 684.391 552.575 684.8C556.612 685.209 560.552 686.061 564.596 686.369C568.64 686.677 572.598 687.841 576.638 688.087C580.679 688.333 584.783 687.349 588.805 687.509C592.828 687.668 596.833 689.192 600.88 689.337C604.927 689.483 608.994 688.939 613.027 689.061C617.06 689.182 621.121 689.351 625.154 689.473C629.187 689.594 633.256 689.276 637.292 689.459C641.329 689.643 645.341 690.453 649.381 690.699C653.422 690.945 657.445 690.492 661.503 690.824C665.555 690.644 669.607 692.527 673.681 692.496C677.74 692.441 681.785 692.136 685.838 692.181C689.892 692.226 693.96 691.683 698.027 691.752C702.094 691.821 706.134 692.067 710.202 692.136C714.269 692.206 718.314 691.288 722.378 691.295C726.427 691.278 730.542 692.545 734.584 692.403C738.64 692.285 742.627 690.821 746.672 690.517C750.717 690.212 754.793 690.018 758.799 689.478C762.822 689.638 766.634 690.047 770.24 689.932C774.272 689.828 778.102 690.099 781.669 689.973C785.75 689.841 789.494 689.742 793.022 689.994C797.028 690.292 800.698 690.397 804.149 691.854C807.599 693.311 811.074 694.753 813.947 697.833C816.219 700.26 818.791 703.32 820.872 707.147C822.502 710.138 822.049 714.655 823.576 718.64C825.98 722.023 829.558 724.76 831.972 728.104C834.386 731.449 837.294 734.476 839.722 737.844C842.15 741.213 842.971 745.703 845.399 749.072C847.827 752.44 851.883 754.611 854.311 757.98C856.739 761.348 859.071 764.773 861.475 768.155C863.879 771.538 864.927 775.864 867.307 779.261C869.687 782.657 872.546 785.712 874.926 789.109C877.306 792.505 880.213 795.533 882.569 798.943C884.9 802.367 886.259 806.45 888.566 809.889C890.873 813.327 893.553 816.518 895.826 820.008C898.085 823.475 901.393 826.303 903.604 829.797C905.815 833.291 907.546 837.127 909.708 840.649C911.871 844.171 913.499 847.55 915.613 851.1C912.531 848.495 910.007 846.02 907.067 843.495C903.995 840.853 900.613 838.679 897.698 836.14C894.65 833.484 891.713 830.796 888.807 828.219C885.759 825.563 882.295 823.469 879.39 820.892C876.352 818.198 874.775 814.015 871.869 811.438C868.832 808.744 865.733 806.278 862.827 803.701C859.922 801.124 855.696 799.663 852.814 797.072C849.777 794.378 846.537 792.058 843.645 789.505C840.607 786.811 837.718 784.095 834.827 781.542C831.765 778.862 829.403 775.552 826.477 773.051C823.381 770.422 820.936 767.192 817.937 764.733C814.807 762.157 811.44 760.007 808.407 757.6C805.218 755.09 802.466 752.166 799.327 749.853C796.069 747.447 792.701 745.298 789.507 743.113C786.17 740.849 782.463 739.283 779.127 737.244C775.791 735.205 772.609 732.594 769.136 730.764C765.662 728.933 761.921 727.419 758.31 725.797C754.723 724.161 751.048 722.705 747.3 721.291C743.666 719.908 739.594 719.552 735.76 718.381C731.927 717.209 728.267 716.228 724.334 715.275C720.401 714.323 717.057 711.934 713.087 711.196C709.318 710.472 705.349 709.959 701.338 709.373C697.542 708.825 693.364 710.238 689.326 709.83C685.513 709.42 681.624 708.765 677.555 708.471C673.726 708.2 669.897 705.865 665.823 705.672C661.973 705.477 657.957 707.505 653.886 707.374C650.029 707.279 646.126 705.15 642.048 705.118C638.196 705.086 634.206 705.263 630.156 705.28C626.107 705.297 622.362 706.847 618.316 706.926C614.27 707.006 610.471 705.783 606.415 705.9C602.546 706.007 598.599 706.481 594.533 706.636C590.466 706.792 586.685 706.493 582.647 706.697C578.609 706.901 574.805 706.842 570.78 707.07C566.72 707.125 562.78 708.336 558.941 708.941C555.102 709.546 550.996 710.08 547.197 711.145C543.398 712.21 540.053 714.786 536.325 716.197C532.645 717.58 529.039 719.147 525.356 720.692C521.736 722.235 517.612 722.681 513.944 724.252C510.275 725.822 506.534 726.596 502.82 728.031C498.811 728.733 495.216 731.099 491.21 731.639C487.204 732.179 483.166 732.996 479.135 733.325C475.104 733.654 470.929 732.003 466.877 732.183C462.838 732.387 458.827 733.865 454.767 733.92C450.707 733.976 446.666 732.892 442.623 732.809C438.58 732.725 434.476 733.709 430.45 733.487C426.423 733.265 422.459 731.589 418.426 731.243C414.392 730.897 410.251 731.482 406.248 731.021C402.22 730.575 398.361 728.967 394.326 728.396C390.291 727.825 386.056 728.916 382.041 728.268C378.051 727.607 374.144 726.252 370.174 725.515C366.083 724.846 362.282 723.173 358.331 722.134C354.342 721.085 349.917 721.512 346.048 720.168C342.179 718.824 338.528 716.742 334.755 715.117C330.982 713.492 327.808 710.618 324.148 708.799C320.488 706.979 316.403 705.986 312.797 704.038C309.192 702.091 305.37 700.494 301.81 698.456C298.249 696.418 294.925 693.953 291.389 691.901C287.828 689.864 283.794 688.679 280.233 686.642C276.672 684.604 274.114 680.73 270.498 678.821C266.883 676.911 262.348 676.758 258.664 674.952C254.955 673.161 252.121 669.479 248.351 667.916C244.568 666.33 240.537 665.208 236.634 663.916C232.73 662.624 228.619 662.032 224.61 661.059C220.601 660.086 216.577 659.701 212.48 659.134C208.626 658.877 204.83 659.779 200.944 660.024C197.058 660.269 193.186 660.538 189.335 660.731C185.484 660.924 181.553 659.809 177.727 659.375C173.9 658.941 170.597 657.238 166.938 655.644C165.832 655.348 165.372 657.451 164.069 658.042C166.656 661.351 167.807 665.296 170.923 667.848C174.092 670.434 178.317 671.67 181.681 673.982C185.07 676.28 188.439 678.655 191.638 681.127C194.851 683.623 198.182 685.987 200.858 689.116C204.463 691.063 208.034 693.063 211.296 695.531C214.557 698 216.797 701.767 219.897 704.458C222.997 707.149 225.945 710.023 229.065 712.638C232.186 715.252 235.434 717.921 238.809 720.195C242.184 722.469 246.566 723.195 250.388 724.792C253.433 727.611 255.615 731.67 258.903 733.961C262.282 736.298 266.77 736.704 270.395 738.576C274.021 740.447 277.187 743.196 281.025 744.655C284.825 746.103 288.425 748.376 292.356 749.491C296.286 750.607 300.393 751.136 304.419 751.971C308.383 752.809 312.678 752.102 316.707 752.774C320.721 753.421 324.515 755.808 328.547 756.317C332.578 756.826 336.718 756.853 340.759 757.324C344.801 757.795 348.93 757.861 352.961 758.37C357.044 758.688 360.971 759.966 365.04 760.485C369.11 761.005 373.13 761.327 377.158 761.999C381.173 762.646 385.461 761.814 389.493 762.549C393.501 763.297 397.3 765.133 401.312 765.943C405.31 766.729 409.285 767.754 413.282 768.54C417.28 769.327 421.492 769.087 425.514 769.859C429.536 770.631 433.649 770.836 437.677 771.507C441.568 772.387 445.008 775.333 448.855 776.303C452.739 777.284 456.705 777.734 460.559 778.829C464.413 779.924 468.583 779.837 472.378 780.998C476.174 782.159 479.516 784.935 483.291 786.172C487.091 787.395 491.299 787.319 495.078 788.618C498.857 789.917 502.68 791.127 506.425 792.478C510.169 793.83 513.346 796.766 517.08 798.156C520.815 799.545 525.034 799.655 528.758 801.083C532.482 802.511 536.151 804.067 539.889 805.519C543.603 806.985 547.392 808.246 551.082 809.726C554.771 811.206 558.085 813.709 561.775 815.189C565.464 816.669 569.277 817.916 572.991 819.382C576.705 820.848 580.279 822.685 583.978 824.127C587.692 825.593 592.206 824.985 595.944 826.437C599.668 827.865 603.006 830.353 606.716 831.757C610.426 833.161 614.325 834.165 618.083 835.541C621.841 836.917 625.692 837.949 629.446 839.263C633.201 840.576 636.44 843.509 640.215 844.746C644.004 846.007 648.127 846.173 651.951 847.382C655.76 848.567 659.392 850.338 663.246 851.433C667.1 852.528 671.335 852.05 675.209 853.068C679.083 854.087 682.654 856.087 686.535 857.005C690.541 857.916 694.528 858.74 698.534 859.651C702.539 860.562 706.361 862.159 710.342 863.083C714.323 864.008 718.278 865.109 722.259 866.034C726.24 866.959 730.184 868.098 734.179 869.047C738.175 869.996 742.305 870.287 746.287 871.211C750.268 872.136 754.368 872.541 758.373 873.452C762.354 874.376 766.489 874.729 770.47 875.654C774.451 876.579 778.24 878.453 782.231 879.339C786.223 880.226 790.482 879.959 794.498 880.831C798.489 881.718 802.034 884.732 806.035 885.58C810.037 886.429 814.235 886.39 818.261 887.225C822.287 888.059 826.478 887.896 830.49 888.706C834.501 889.517 838.523 890.289 842.545 891.061C846.568 891.833 850.376 893.631 854.423 894.39C858.455 895.124 862.396 896.426 866.415 897.136C870.433 897.846 874.533 898.251 878.586 898.908C882.638 899.566 886.71 899.923 890.759 900.518C894.808 901.114 898.951 900.979 903.01 901.536C907.069 902.093 911.091 902.866 915.147 903.361C919.202 903.856 923.301 904.036 927.377 904.455C931.452 904.873 935.707 904.931 939.779 905.288C943.722 907.04 947.255 909.868 950.731 912.148C954.206 914.429 957.314 917.469 960.446 920.27C963.602 923.057 966.592 926.005 969.397 929.188C972.187 932.348 974.702 935.698 977.22 939.112C979.738 942.525 983.264 945.228 985.565 948.766C987.866 952.305 989.29 956.447 991.446 960.069C993.616 963.716 995.593 967.474 997.662 971.114C999.798 974.813 1001.4 978.819 1003.51 982.407C1005.78 985.672 1008.67 988.512 1010.97 991.764C1013.24 995.029 1015.81 998.089 1018.07 1001.33C1020.33 1004.57 1021.61 1008.57 1023.9 1011.82C1026.2 1015.07 1029.76 1017.44 1032.05 1020.69C1034.35 1023.94 1035.61 1027.92 1037.88 1031.18C1040.16 1034.45 1042.26 1037.81 1044.53 1041.08C1046.78 1044.36 1050.02 1046.96 1052.25 1050.26C1054.47 1053.55 1056.49 1056.99 1058.69 1060.3C1060.89 1063.61 1062.44 1067.35 1064.59 1070.69C1066.74 1074.02 1069.51 1076.97 1071.62 1080.36C1073.75 1083.71 1075.46 1087.33 1077.55 1090.73C1079.64 1094.13 1081.09 1097.87 1083.1 1101.29C1085.1 1104.71 1087.82 1107.63 1089.79 1111.1C1086.38 1108.81 1083.54 1105.81 1080.18 1103.43C1076.81 1101.06 1073.59 1098.5 1070.26 1096.07C1066.92 1093.64 1062.45 1092.81 1059.11 1090.39C1055.8 1087.94 1052.94 1084.89 1049.62 1082.43C1046.3 1079.96 1042.43 1078.29 1039.12 1075.85C1035.81 1073.41 1032.44 1071.04 1029.11 1068.61C1025.78 1066.18 1023.17 1062.79 1019.8 1060.41C1016.43 1058.04 1013.47 1055.08 1010.07 1052.75C1006.66 1050.43 1002.08 1049.92 998.61 1047.7C995.138 1045.48 992.886 1041.3 989.346 1039.19C985.806 1037.07 981.847 1035.69 978.227 1033.71C974.608 1031.74 970.533 1030.71 966.835 1028.88C963.151 1027.08 959.864 1024.4 956.077 1022.75C952.289 1021.1 948.666 1019.06 944.804 1017.62C940.979 1016.19 936.853 1015.34 932.891 1014.12C928.949 1013.43 924.895 1013.16 920.908 1012.56C916.935 1011.98 913.019 1010.89 909.026 1010.39C905.033 1009.9 900.968 1010.28 896.968 1009.88C892.969 1009.48 888.946 1009.32 884.95 1008.98C880.954 1008.65 876.916 1008.85 872.91 1008.55C868.904 1008.26 864.895 1008.12 860.879 1007.86C856.863 1007.6 852.867 1007.26 848.865 1007.03C844.862 1006.79 840.832 1006.51 836.83 1006.27C832.828 1006.04 828.779 1005.44 824.79 1005.23C820.47 1004.28 816.444 1003.44 812.437 1003.76C808.234 1004.12 803.992 1004.47 800.049 1005.85C796.154 1007.19 792.244 1008.9 788.498 1010.84C784.751 1012.78 781.723 1015.85 778.085 1017.92C774.422 1020 770.883 1022.69 767.206 1024.52C763.305 1025.35 759.064 1025.1 755.321 1026.26C751.578 1027.42 747.734 1028.57 744.072 1030.04C740.41 1031.51 736.881 1033.33 733.31 1035.06C729.764 1036.79 726.556 1039.16 723.083 1041.07C719.61 1042.98 716.017 1044.57 712.614 1046.59C709.211 1048.62 706.079 1051.01 702.717 1053.11C699.356 1055.22 695.492 1056.45 692.144 1058.57C688.821 1060.69 685.543 1062.93 682.192 1065C678.841 1067.06 675.368 1068.97 671.989 1070.98C668.609 1073 665.318 1075.22 661.855 1077.09C658.392 1078.96 654.905 1080.85 651.344 1082.55C647.784 1084.25 644.899 1087.01 641.237 1088.48C638.513 1091.41 635.043 1093.15 631.76 1095.11C628.478 1097.07 624.543 1097.96 620.999 1099.52C617.455 1101.08 614.484 1103.86 611.024 1105.57C607.564 1107.28 604.274 1109.11 601.26 1111.59C597.627 1113.34 593.406 1113.61 589.78 1114.64C586.154 1115.67 582.165 1116.08 578.342 1116.54C574.52 1117.01 570.659 1117.46 566.783 1117.45C562.906 1117.43 559.059 1117.07 555.188 1116.73C551.316 1116.38 547.469 1116.03 543.601 1115.52C539.732 1115.01 535.761 1115.5 531.892 1114.99C528.024 1114.49 524.396 1112.17 520.521 1111.76C516.646 1111.36 512.736 1111.61 508.852 1111.47C505.124 1110.59 501.248 1110.8 497.705 1109.69C494.073 1108.53 491.069 1105.78 487.568 1104.52C484.014 1103.22 480.573 1101.72 477.072 1100.46C473.556 1099.17 469.685 1098.82 466.114 1097.66C462.582 1096.51 458.967 1095.44 455.301 1094.56C451.711 1093.7 448.072 1092.64 444.255 1092.17C440.439 1091.69 436.791 1091.12 432.891 1091.12C428.566 1091.55 424.647 1092.08 421.167 1092.41C416.406 1092.87 412.559 1093.96 409.574 1094.43C402.463 1095.5 400.772 1096.71 404.713 1100.07C406.61 1101.68 409.217 1104.69 413.93 1107.39C416.817 1109.04 421.024 1109.35 424.98 1111.51C428.683 1113.02 431.527 1116.44 435.196 1117.99C438.865 1119.55 443.326 1119.29 446.985 1120.89C450.644 1122.48 454.282 1124.15 457.921 1125.82C461.559 1127.49 464.92 1129.74 468.525 1131.47C472.129 1133.19 475.421 1135.54 478.981 1137.36C482.54 1139.17 486.007 1141.1 489.546 1142.99C493.085 1144.88 497.026 1145.96 500.517 1147.87C504.008 1149.79 507.729 1151.38 511.175 1153.39C514.597 1155.41 517.783 1157.86 521.185 1159.95C524.893 1161.74 528.799 1162.87 532.562 1164.54C536.325 1166.2 539.571 1169.03 543.375 1170.54C547.179 1172.05 551.018 1173.51 554.89 1174.92C558.739 1176.34 562.884 1176.88 566.778 1178.21C570.671 1179.54 574.308 1181.6 578.231 1182.81C582.155 1184.03 586.457 1183.83 590.425 1184.96C594.393 1186.08 598.258 1187.37 602.233 1188.39C606.208 1189.42 609.856 1191.66 613.851 1192.61C617.847 1193.56 621.92 1194.14 625.911 1195.03C629.903 1195.91 634.003 1196.32 638.018 1197.19C642.091 1197.77 646.087 1198.72 650.162 1199.14C654.238 1199.56 658.263 1201.01 662.346 1201.33C666.428 1201.64 670.636 1200.73 674.725 1200.95C678.813 1201.17 682.894 1201.87 686.993 1202.05C691.092 1202.23 695.213 1201.95 699.312 1202.13C703.411 1202.31 707.551 1201.72 711.654 1201.96C715.756 1202.21 719.702 1204.41 723.823 1204.74C728.022 1204.92 732.334 1204.69 736.384 1204.06C740.448 1203.45 744.449 1202.63 748.455 1201.47C752.422 1201.54 756.289 1199.53 760.277 1199.74C764.266 1199.95 768.236 1200.08 772.21 1200.27C776.185 1200.45 780.11 1201.28 784.07 1201.22C788.029 1201.16 792.023 1201.04 795.984 1200.59C800.08 1200.94 804.158 1201.19 808.216 1200.69C812.236 1200.17 816.367 1199.85 820.354 1199C824.341 1198.15 828.106 1195.91 832.104 1195.24C836.103 1194.58 840.356 1194.41 844.409 1194.46C848.462 1194.5 852.307 1196.7 856.346 1197.94C860.407 1197.5 864.559 1196.49 868.592 1196.61C872.625 1196.73 876.582 1197.67 880.599 1198.16C884.617 1198.64 888.731 1198.46 892.725 1199.18C896.72 1199.91 900.632 1200.93 904.606 1201.73C908.58 1202.53 912.763 1202.25 916.719 1202.96C920.713 1203.68 924.66 1204.05 928.678 1204.53C932.344 1204.8 935.909 1207.74 939.853 1208.65C943.681 1209.54 947.797 1209.58 951.557 1209.95C955.581 1210.34 959.728 1210.49 963.286 1208.95C966.812 1207.08 970.461 1205.81 974.432 1206.16C978.203 1206.5 982.03 1207.77 985.936 1208.06C989.842 1208.35 993.621 1208.2 997.334 1206.54C1001.55 1206.04 1005.45 1204.92 1008.98 1203.1C1012.51 1201.29 1016.43 1199.61 1019.03 1196.18C1022.07 1194.19 1024.47 1191.71 1027.66 1190.03C1030.84 1188.35 1033.76 1185.99 1037.11 1184.64C1040.45 1183.29 1044.4 1183.59 1047.83 1182.51C1051.27 1181.43 1054.47 1179.55 1057.98 1178.71C1060.87 1178.08 1064.75 1176.38 1069.03 1173.85C1072.24 1171.93 1076.01 1170.11 1079.54 1167.78C1082.92 1165.54 1086.08 1162.81 1089.4 1160.7C1093.13 1158.35 1096.82 1156.42 1099.99 1154.88C1105.17 1152.41 1110 1150.39 1112.06 1152.52C1114.92 1155.29 1117.23 1158.62 1119.73 1161.66C1122.23 1164.73 1123.43 1168.74 1125.64 1172.01C1127.85 1175.28 1131.02 1177.93 1133.03 1181.31C1135.03 1184.71 1135.59 1188.92 1137.49 1192.38C1139.38 1195.83 1142.18 1198.82 1144.02 1202.3C1145.87 1205.78 1146.83 1209.77 1148.74 1213.21C1150.68 1216.67 1154.31 1219.12 1156.36 1222.45C1158.44 1225.82 1158.81 1230.19 1161.14 1233.39C1162.93 1237 1165.63 1240.05 1167.49 1243.61C1169.36 1247.18 1171.36 1250.66 1173.29 1254.22C1175.21 1257.76 1177.17 1261.27 1179.14 1264.8C1181.12 1268.33 1182.85 1271.94 1184.87 1275.45C1186.9 1278.95 1189.91 1281.82 1191.94 1285.29C1193.97 1288.76 1196.2 1292.11 1198.26 1295.57C1200.32 1299.02 1201.42 1303.06 1203.51 1306.5C1205.59 1309.94 1208.3 1313.01 1210.38 1316.45C1212.46 1319.89 1213.45 1324 1215.54 1327.46C1217.63 1330.9 1219.61 1334.39 1221.71 1337.86C1223.77 1341.31 1227.13 1344.01 1229.19 1347.46C1231.25 1350.92 1233.58 1354.24 1235.59 1357.72C1237.6 1361.2 1238.88 1365.14 1240.84 1368.65C1242.83 1372.15 1245.17 1375.53 1247.08 1379.07C1248.07 1382.4 1249.39 1386.86 1250.25 1389.97C1251.37 1394.03 1250.82 1395.99 1243.76 1392.17C1240.02 1390.88 1236.12 1389.72 1232.29 1388.22C1228.58 1386.75 1224.44 1386.18 1220.66 1384.65C1216.95 1383.12 1213.66 1380.44 1209.89 1378.94C1206.14 1377.47 1202.71 1375.03 1198.9 1373.69C1195.09 1372.34 1191.01 1371.63 1187.15 1370.47C1183.3 1369.32 1179.15 1369 1175.22 1368.21C1171.24 1367.41 1167.37 1365.72 1163.33 1365.37C1159.3 1365.03 1155.13 1364.95 1151.08 1365.19C1147.1 1365.43 1143.16 1366.87 1139.16 1367.76C1135.06 1367.74 1130.94 1366.86 1126.97 1367.29C1122.99 1367.71 1119.18 1370.1 1115.28 1370.94C1111.38 1371.77 1107.2 1371.9 1103.38 1373.14C1099.55 1374.38 1095.42 1375.09 1091.71 1376.65C1088.01 1378.21 1085.39 1382.1 1081.79 1383.96C1078.22 1385.82 1073.53 1385.73 1070.09 1387.81C1066.66 1389.89 1064.22 1393.59 1060.89 1395.86C1057.56 1398.14 1053.7 1399.66 1050.46 1402.08C1047.22 1404.5 1044.34 1407.38 1041.22 1409.89C1038.08 1412.45 1034.79 1414.83 1031.75 1417.43C1028.89 1420.24 1026.31 1423.3 1023.62 1426.18C1020.9 1429.11 1017.83 1431.72 1015.25 1434.72C1012.64 1437.74 1010.65 1441.27 1008.2 1444.4C1005.75 1447.52 1002.48 1450.05 1000.11 1453.26C997.741 1456.46 996.662 1460.57 994.411 1463.87C992.159 1467.16 989.032 1469.84 986.922 1473.22C984.813 1476.6 982.731 1480.02 980.712 1483.44C978.693 1486.87 976.146 1490.04 974.255 1493.52C972.364 1497 972.233 1501.46 970.408 1504.99C968.583 1508.53 965.894 1511.63 964.197 1515.22C962.501 1518.81 960.96 1522.5 959.316 1526.13C957.671 1529.75 956.36 1533.51 954.805 1537.18C953.251 1540.85 950.85 1544.17 949.358 1547.83C947.88 1551.52 945.993 1555.06 944.567 1558.79C943.141 1562.51 942.866 1566.67 941.478 1570.4C940.09 1574.13 938.331 1577.73 937.006 1581.46C935.68 1585.19 933.835 1588.8 932.547 1592.54C931.274 1596.31 931.162 1600.47 929.902 1604.26C928.642 1608.04 928.069 1612.02 926.848 1615.82C925.612 1619.59 923.677 1623.16 922.479 1626.95C921.282 1630.73 919.08 1634.23 917.896 1638.04C916.699 1641.82 915.096 1645.52 913.899 1649.31C912.702 1653.09 911.785 1656.97 910.564 1660.77C909.342 1664.57 908.017 1668.3 906.819 1672.09C905.622 1675.87 906.168 1680.17 904.933 1683.94C904.259 1687.91 903.384 1691.86 902.315 1695.7C901.246 1699.54 897.872 1702.69 896.523 1706.43C895.149 1710.19 895.13 1714.45 893.628 1718.16C892.126 1721.86 890.714 1725.61 889.25 1729.32C887.785 1733.04 884.737 1736.18 883.415 1739.98C882.093 1743.77 881.485 1747.8 880.482 1751.7C879.622 1755.67 878.709 1759.62 877.644 1763.52C876.579 1767.42 877.094 1771.83 875.852 1775.71C874.61 1779.58 871.212 1782.74 869.918 1786.58C868.624 1790.42 868.748 1794.76 867.416 1798.6C866.084 1802.43 864.714 1806.25 863.434 1810.11C862.14 1813.95 860.108 1817.58 858.904 1821.46C857.7 1825.35 857.12 1829.42 856.093 1833.34C855.066 1837.25 854.902 1841.37 854.104 1845.35C853.786 1846.92 850.711 1850.46 848.577 1855.31C847.18 1858.47 845.684 1862.07 844.247 1865.61C842.744 1869.31 840.642 1872.81 839.781 1875.95C838.277 1881.5 839.171 1885.33 842.465 1885.23C846.622 1882.83 850.526 1880 854.416 1876.92C858.306 1873.83 862.048 1870.16 866.308 1867.83C870.556 1867.15 875.21 1867.62 879.407 1866.52C883.565 1865.41 887.162 1862.43 891.285 1861.14C895.408 1859.86 899.581 1858.77 903.704 1857.49C907.827 1856.2 912.433 1856.7 916.609 1855.68C920.786 1854.65 924.937 1853.41 929.202 1852.82C933.033 1851.25 936.475 1848.62 940.265 1846.98C944.054 1845.34 947.815 1843.65 951.601 1841.95C955.362 1840.26 959.005 1838.26 962.79 1836.56C966.552 1834.87 971.002 1834.65 974.791 1833.01C978.58 1831.37 982.296 1829.55 986.128 1827.98C989.959 1826.41 994.032 1825.54 997.909 1824.11C1001.79 1822.68 1005.45 1820.76 1009.4 1819.51C1013.31 1818.41 1017.3 1817.75 1021.22 1816.71C1025.13 1815.68 1028.65 1813.13 1032.57 1812.1C1036.48 1811.06 1040.65 1810.98 1044.56 1809.88C1048.47 1808.78 1052.35 1807.64 1056.23 1806.43C1060.11 1805.22 1064.03 1804.15 1067.85 1802.78C1071.67 1801.42 1075.39 1799.78 1079.12 1798.21C1082.82 1796.62 1086.63 1795.13 1090.24 1793.24C1093.98 1791.57 1096.83 1788.24 1100.39 1786.38C1104 1784.49 1108.15 1783.64 1111.59 1781.56C1115.03 1779.48 1118.51 1777.3 1121.85 1774.99C1125.18 1772.68 1127.99 1769.67 1131.19 1767.18C1134.39 1764.69 1138.37 1763.16 1141.45 1760.51C1144.53 1757.87 1147.41 1754.98 1150.34 1752.19C1153.27 1749.4 1155.14 1745.55 1157.95 1742.61C1160.75 1739.7 1163.14 1736.42 1165.81 1733.39C1168.48 1730.37 1172.03 1728.1 1174.59 1724.94C1177.14 1721.83 1180.11 1718.98 1182.56 1715.76C1185.02 1712.54 1187.2 1709.12 1189.58 1705.81C1191.95 1702.51 1194.01 1699.03 1196.29 1695.68C1198.58 1692.33 1201.08 1689.12 1203.27 1685.72C1205.47 1682.33 1206.35 1678.11 1208.48 1674.66C1210.61 1671.2 1213.37 1668.16 1215.44 1664.67C1217.52 1661.19 1219.24 1657.52 1221.26 1654C1223.29 1650.47 1226.68 1647.75 1228.68 1644.24C1230.67 1640.7 1231.07 1636.28 1233.02 1632.73C1235 1629.18 1238.46 1626.47 1240.42 1622.95C1242.4 1619.39 1244.31 1615.9 1246.25 1612.4C1248.6 1609.33 1249.1 1605.11 1251.19 1601.87C1253.29 1598.63 1255.48 1595.46 1257.6 1592.27C1259.71 1589.06 1262.19 1586.05 1264.66 1583.07C1267.13 1580.1 1270.75 1578.27 1273.82 1575.82C1275.83 1572.34 1278.08 1568.81 1280.1 1565.33C1282.11 1561.85 1283.39 1557.92 1285.4 1554.43C1287.42 1550.95 1288.39 1546.88 1290.39 1543.37C1292.39 1539.86 1294.24 1536.31 1296.15 1532.76C1298.08 1529.23 1300.29 1525.86 1302.15 1522.27C1304.02 1518.71 1306.57 1515.59 1308.36 1511.94C1310.37 1515.42 1312.08 1518.99 1314.07 1522.44C1316.07 1525.9 1317.76 1529.56 1319.75 1533.06C1321.73 1536.55 1324.78 1539.43 1326.73 1542.92C1328.69 1546.43 1330.33 1550.09 1332.26 1553.62C1334.2 1557.14 1335.31 1561.08 1337.23 1564.61C1339.14 1568.15 1341.18 1571.58 1343.07 1575.13C1344.96 1578.68 1347.57 1581.81 1349.44 1585.38C1351.3 1588.94 1352.18 1592.98 1354.03 1596.56C1355.88 1600.1 1357.37 1603.85 1359.21 1607.43C1361.05 1611.01 1363.44 1614.26 1365.25 1617.83C1367.05 1621.4 1369.29 1624.78 1371.07 1628.36C1372.85 1631.95 1375.72 1635.02 1377.5 1638.61C1379.28 1642.19 1379.03 1646.78 1380.78 1650.38C1382.54 1653.97 1385.91 1656.8 1387.65 1660.43C1389.38 1664.04 1390.85 1667.81 1392.55 1671.43C1394.26 1675.06 1396.22 1678.57 1397.92 1682.19C1399.63 1685.81 1399.7 1690.22 1401.4 1693.85C1403.11 1697.47 1406.79 1700.22 1408.44 1703.87C1410.1 1707.52 1410.87 1711.59 1412.53 1715.24C1414.19 1718.89 1414.98 1722.95 1416.6 1726.59C1418.23 1730.26 1419.66 1734.01 1421.29 1737.68C1422.93 1741.34 1424.73 1744.91 1426.36 1748.58C1427.97 1752.26 1429.68 1755.88 1431.29 1759.56C1432.9 1763.24 1435.31 1766.52 1436.92 1770.21C1438.83 1773.52 1441.26 1776.5 1443.08 1779.83C1444.91 1783.16 1445.6 1787.14 1447.5 1790.43C1449.4 1793.72 1451.37 1797.03 1453.46 1800.2C1455.55 1803.38 1457.11 1807.02 1459.54 1810C1461.9 1812.93 1465.77 1814.05 1468.58 1816.68C1473.52 1817.15 1473.99 1814.49 1473.57 1809.48C1473.29 1805.97 1471.65 1802.08 1470.23 1798.16C1468.62 1793.71 1467.72 1789.23 1466.36 1786.83C1465.06 1782.96 1462.91 1779.47 1461.48 1775.65C1460.07 1771.86 1458.19 1768.27 1456.65 1764.49C1455.12 1760.72 1453.72 1756.96 1452.08 1753.23C1450.46 1749.52 1450.84 1744.89 1449.13 1741.2C1447.42 1737.51 1445.06 1734.14 1443.28 1730.5C1441.49 1726.85 1438.37 1723.89 1436.52 1720.25C1434.69 1716.63 1432.86 1713.01 1431.01 1709.41C1429.13 1705.82 1427.34 1702.18 1425.44 1698.6C1423.54 1695.03 1422.43 1690.99 1420.53 1687.42C1418.63 1683.84 1416.83 1680.17 1414.93 1676.6C1413 1673.03 1409.98 1670.04 1408.08 1666.46C1406.18 1662.89 1405.68 1658.63 1403.78 1655.05C1402.68 1651.14 1399.82 1647.93 1398.24 1644.17C1396.66 1640.44 1395.88 1636.34 1393.96 1632.75C1392.06 1629.17 1389.85 1625.74 1387.79 1622.22C1385.73 1618.71 1382.65 1615.78 1380.59 1612.32C1378.49 1608.8 1376.8 1605.04 1374.91 1601.48C1373.02 1597.93 1372.73 1593.46 1371.16 1589.79C1369.35 1585.71 1367.56 1581.88 1365.77 1578.34C1363.82 1574.46 1361.59 1570.88 1359.61 1567.29C1357.64 1563.69 1354.3 1560.75 1352.17 1557.02C1350.16 1553.53 1349 1549.46 1346.86 1545.58C1346.04 1541.31 1345.23 1537.07 1343.73 1533.07C1342.25 1529.06 1339.27 1525.69 1337.18 1521.96C1335.11 1518.26 1333.97 1513.89 1331.31 1510.46C1329.13 1507.01 1325.46 1504.45 1323.86 1500.84C1322.25 1497.16 1320.85 1493.23 1319.68 1489.42C1318.5 1485.59 1318.13 1481.48 1317.22 1477.56C1316.32 1473.66 1316.45 1469.53 1315.69 1465.59C1314.92 1461.64 1312.64 1458.03 1311.83 1454.11C1311.02 1450.2 1312.35 1445.75 1311.31 1441.88C1310.26 1438 1307.5 1434.66 1306.1 1430.9C1304.7 1427.19 1304.44 1422.89 1302.5 1419.31C1301.08 1416.52 1297.67 1413.84 1295.03 1411.28C1292.34 1408.64 1290.31 1406.84 1291.92 1402.88C1293.84 1399.23 1296.16 1395.99 1298.32 1392.55C1300.49 1389.1 1301.02 1384.44 1303.45 1381.17C1305.88 1377.9 1310.17 1376.07 1312.84 1372.98C1315.49 1369.87 1317.33 1366.04 1320.18 1363.1C1323.03 1360.17 1326.87 1358.28 1329.87 1355.51C1332.88 1352.74 1334.73 1348.68 1337.84 1346.04C1340.96 1343.4 1345.31 1342.28 1348.52 1339.75C1351.73 1337.22 1354.66 1334.37 1357.95 1331.92C1361.21 1329.48 1364.69 1327.31 1368.03 1324.94C1371.36 1322.56 1374.57 1320.03 1377.92 1317.68C1381.26 1315.33 1384.21 1312.4 1387.56 1310.05C1390.91 1307.7 1394.73 1306.01 1398.05 1303.67C1401.37 1301.33 1404.7 1298.9 1408.04 1296.52C1411.37 1294.14 1414.58 1291.78 1417.83 1289.32C1421.91 1287.96 1425.38 1285.38 1429.23 1283.51C1433.08 1281.64 1436.96 1279.82 1440.59 1277.57C1444.21 1275.31 1447.56 1272.18 1451.01 1269.68C1455.76 1269.74 1458.56 1267.74 1461.26 1264.82C1463.96 1261.91 1466.75 1258.82 1469.48 1255.95C1472.28 1253.27 1474.43 1249.8 1477.38 1247.2C1480.3 1244.61 1483.39 1242.22 1486.32 1239.65C1489.26 1237.09 1492.54 1234.9 1495.39 1232.26C1498.25 1229.61 1501.76 1227.55 1504.42 1224.73C1507.09 1221.89 1509.89 1219.02 1512.26 1215.94C1514.64 1212.86 1515.84 1208.91 1517.8 1205.49C1520.3 1202.18 1523.02 1198.97 1524.92 1195.23C1526.76 1191.55 1528 1187.51 1529.43 1183.56C1530.85 1179.61 1532.55 1175.86 1533.77 1171.84C1534.98 1167.85 1536.67 1164.01 1537.88 1160.02C1539.09 1156.04 1539.32 1151.71 1540.71 1147.85C1542.09 1143.99 1543.31 1139.8 1545.11 1136.12C1546.96 1132.34 1549.82 1129.21 1552.28 1125.89C1554.75 1122.56 1557.89 1120.07 1561.16 1117.38C1564.23 1114.83 1567.9 1112.65 1571.88 1110.77C1573.38 1107 1573.26 1102.17 1574.53 1098.34C1575.8 1094.52 1578.53 1091.1 1579.64 1087.21C1580.74 1083.32 1581.37 1079.28 1582.28 1075.33C1583.2 1071.39 1583.18 1067.24 1583.92 1063.27C1584.66 1059.3 1584.9 1055.26 1585.48 1051.25C1586.07 1047.23 1588.09 1043.42 1588.53 1039.4C1588.98 1035.37 1588.68 1031.28 1589.01 1027.23C1589.34 1023.17 1589.11 1019.14 1589.32 1015.09C1589.53 1011.04 1590.9 1007.05 1590.98 1003.01C1591.06 998.967 1590.52 994.898 1590.5 990.847C1590.48 986.797 1590.17 982.751 1590.07 978.718C1589.99 974.671 1590.26 970.616 1590.07 966.563C1589.89 962.51 1589.15 958.49 1588.92 954.465C1588.69 950.439 1588.38 946.432 1588.08 942.41C1586.66 938.331 1585.08 934.249 1584.38 930.077C1583.68 925.904 1584.84 921.395 1584.55 917.149C1584.26 912.902 1583.24 908.686 1583.06 904.408C1582.87 900.13 1583.8 895.76 1583.38 891.521C1582.96 887.282 1582.02 882.962 1581.09 878.791C1579.67 874.774 1577.82 870.946 1576.91 866.923C1576.01 862.8 1576.15 858.566 1575.7 854.441C1575.22 850.268 1574.87 846.149 1574.72 841.982C1574.57 837.814 1573.1 833.638 1573.16 829.446C1573.22 825.253 1574.27 821.101 1574.39 816.904C1574.53 812.732 1574.76 808.279 1574.87 804.058C1570.12 804.542 1565.97 806.616 1562.55 809.172C1559.12 811.728 1555.45 814.461 1552.65 818.043C1549.86 821.624 1547.85 825.458 1545.21 828.98C1542.5 832.605 1539.27 835.375 1535.96 838.124C1533.03 840.75 1530.89 844.242 1528.24 847.065C1525.58 849.887 1523.4 853.206 1520.96 856.228C1518.52 859.251 1516.53 862.621 1514.23 865.784C1511.96 868.934 1508.59 871.362 1506.45 874.629C1504.31 877.895 1503.04 881.723 1500.95 885.024C1498.86 888.325 1496.76 891.603 1494.71 894.914C1492.66 898.226 1490.78 901.664 1488.69 904.966C1486.6 908.267 1483.59 910.973 1481.42 914.192C1479.24 917.448 1478.19 921.663 1475.87 924.778C1472.51 927.33 1468.96 929.606 1466.08 932.554C1463.19 935.516 1460.68 938.867 1458.19 942.267C1454.47 944.191 1450.34 945.576 1446.94 947.892C1443.54 950.209 1439.79 952.084 1436.7 954.933C1433.16 957.008 1430.64 960.723 1426.93 962.445C1423.22 964.168 1419.17 965.186 1415.33 966.628C1411.49 968.071 1407.19 968.103 1403.29 969.387C1399.42 970.657 1395.88 973.019 1391.98 974.24C1388.08 975.462 1384.03 976.254 1380.15 977.524C1376.28 978.794 1372.43 980.213 1368.6 981.679C1364.76 983.122 1361.54 985.854 1357.83 987.576C1354.12 989.299 1349.44 989.166 1345.91 991.265C1342.44 993.337 1339.69 996.665 1336.43 999.223C1333.29 1001.71 1330.69 1004.86 1327.8 1007.88C1324.86 1010.71 1321.68 1013.25 1318.96 1016.24C1316.22 1019.24 1313.76 1022.46 1311.24 1025.63C1308.72 1028.79 1305.66 1031.59 1303.32 1034.91C1300.98 1038.22 1299.09 1041.86 1296.96 1045.32C1294.83 1048.77 1293.36 1052.58 1291.42 1056.15C1289.47 1059.69 1285.95 1062.47 1284.17 1066.14C1282.39 1069.81 1282.52 1074.32 1280.9 1078.05C1279.28 1081.76 1277.15 1085.28 1275.69 1089.05C1274.23 1092.83 1273.55 1096.9 1272.22 1100.73C1270.88 1104.56 1268.86 1108.15 1267.66 1112.03C1266.46 1115.92 1264.25 1119.51 1263.14 1123.41C1262.04 1127.3 1262.83 1131.74 1261.81 1135.65C1260.79 1139.59 1259.92 1143.54 1259 1147.49C1258.06 1151.32 1256.76 1155.04 1255.97 1158.91C1255.18 1162.79 1253.67 1166.49 1253.01 1170.36C1252.34 1174.22 1251.46 1178.11 1250.91 1182.01C1250.35 1185.91 1250.19 1189.87 1249.75 1193.8C1249.34 1197.71 1248.4 1201.61 1248.08 1205.53C1247.77 1209.45 1248.37 1213.45 1248.16 1217.38C1247.95 1221.3 1248.56 1225.27 1248.45 1229.2C1248.33 1233.14 1248.35 1237.06 1248.36 1240.99C1248.34 1244.93 1246.63 1248.88 1246.68 1252.82C1246.77 1256.76 1247.7 1260.67 1247.85 1264.61C1248 1268.56 1247.18 1272.55 1247.42 1276.47C1247.65 1280.4 1249.95 1284.2 1250.24 1288.12C1250.54 1292.04 1250.26 1296.01 1250.63 1299.95C1251.01 1303.89 1250.84 1307.85 1251.27 1311.77C1251.69 1315.68 1251.94 1319.63 1252.43 1323.54C1252.91 1327.45 1253.4 1331.36 1253.92 1335.28C1254.44 1339.2 1256.27 1342.92 1256.84 1346.81C1257.41 1350.7 1256.15 1354.88 1256.75 1358.76C1257.94 1367.35 1257.84 1367.8 1254.94 1364.44C1253.22 1362.47 1249.65 1359.86 1247.26 1355.6C1245.53 1352.5 1245.61 1347.94 1243.76 1344.3C1242.03 1340.86 1239.76 1337.59 1238.13 1334.15C1236.35 1330.4 1233.56 1327.31 1232.11 1324.12C1229.84 1319.08 1229.37 1314.51 1228.74 1312.88C1226.42 1309.41 1222.93 1306.66 1220.73 1303.13C1218.53 1299.59 1216.87 1295.72 1214.74 1292.14C1212.62 1288.57 1211.41 1284.46 1209.37 1280.83C1207.34 1277.21 1204.07 1274.26 1202.06 1270.62C1200.05 1266.97 1199.91 1262.32 1197.93 1258.66C1195.94 1255 1193.91 1251.37 1191.89 1247.71C1189.88 1244.06 1187.33 1240.7 1185.3 1237.07C1183.27 1233.44 1180.54 1230.21 1178.42 1226.6C1176.34 1223 1173.72 1219.74 1171.53 1216.17C1169.34 1212.6 1167.03 1209.1 1164.7 1205.64C1163.4 1201.98 1161.57 1198.49 1159.75 1194.99C1157.95 1191.55 1157.23 1187.45 1155.13 1184.09C1153.06 1180.78 1150.72 1177.62 1148.53 1174.33C1146.34 1171.05 1144.2 1167.78 1142.05 1164.5C1139.89 1161.21 1138.49 1157.5 1136.54 1154.12C1134.55 1150.68 1130.83 1148.09 1129.3 1144.53C1128.16 1140.29 1128.21 1136.01 1128.37 1132.33C1128.57 1128.16 1130.93 1124.77 1132.49 1121.16C1134.05 1117.55 1135.18 1113.71 1137.83 1110.6C1140.34 1107.63 1143.48 1105.14 1146.67 1102.53C1149.68 1100.05 1153.34 1098.35 1156.73 1096.07C1160.12 1093.79 1162.44 1090.17 1165.85 1088.1C1169.32 1086 1173.77 1085.63 1177.17 1083.6C1180.68 1081.47 1183.56 1078.42 1186.77 1076.28C1190.26 1073.95 1194.14 1072.25 1196.97 1069.78C1200.06 1066.87 1201.7 1062.8 1203.92 1059.45C1206.15 1056.1 1207.39 1052.13 1209.06 1048.36C1210.71 1044.64 1212.64 1041.07 1213.9 1037.12C1215.17 1033.17 1217.24 1029.55 1218.37 1025.61C1219.51 1021.66 1219.15 1017.23 1220.4 1013.32C1221.67 1009.39 1224.84 1006.18 1226.47 1002.4C1228.09 998.629 1228.49 994.241 1230.7 990.769C1232.35 987.207 1234 983.707 1235.65 980.144C1237.3 976.582 1239.24 973.139 1240.89 969.577C1242.54 966.014 1244.97 962.805 1246.61 959.218C1248.26 955.656 1249.85 952.059 1251.5 948.496C1253.15 944.934 1255.02 941.471 1256.65 937.884C1258.28 934.297 1258.36 930.028 1259.97 926.455C1261.58 922.883 1264.26 919.759 1265.86 916.162C1267.45 912.565 1269.43 909.133 1271.01 905.55C1272.56 901.943 1272.88 897.797 1274.42 894.166C1275.96 890.535 1278.6 887.401 1280.12 883.783C1281.64 880.166 1282.3 876.175 1283.78 872.547C1285.27 868.92 1286.98 865.354 1288.46 861.726C1289.93 858.074 1290.95 854.262 1292.38 850.6C1293.82 846.962 1296.58 843.82 1298 840.134C1299.41 836.448 1299.69 832.355 1301.08 828.683C1302.47 825.01 1303.46 821.188 1304.81 817.505C1306.16 813.823 1309.37 810.78 1310.68 807.087C1312 803.395 1311.32 798.983 1312.58 795.256C1313.85 791.529 1315.16 787.837 1316.39 784.099C1317.61 780.362 1318.84 776.462 1320.03 772.715C1322.18 769.572 1325.38 766.917 1327.55 763.761C1329.73 760.605 1331.33 757.07 1333.48 753.928C1335.62 750.786 1338.75 748.273 1340.9 745.131C1343.07 741.974 1344.41 738.268 1346.56 735.125C1348.71 731.983 1351.82 729.446 1353.91 726.269C1356.03 723.079 1357.36 719.348 1359.44 716.147C1362.4 713.569 1365.39 710.939 1367.86 707.841C1370.32 704.742 1371.45 700.898 1373.46 697.452C1375.43 694.057 1378.6 691.291 1380.17 687.646C1381.73 684.039 1382.89 680.205 1384.04 676.447C1385.22 672.676 1385.58 668.665 1386.37 664.854C1387.2 660.928 1388.22 657.115 1388.67 653.274C1389.78 649.444 1391.29 645.702 1392.1 641.852C1392.9 637.94 1392.73 633.911 1393.17 629.983C1393.61 626.055 1393.62 622.115 1393.69 618.148C1393.74 614.218 1393.64 610.31 1393.27 606.33C1392.89 602.426 1391.66 598.461 1390.85 594.545C1391.68 590.519 1393.26 586.548 1393.01 582.661C1392.77 578.775 1392.39 574.67 1391.57 570.793C1390.75 566.915 1389.63 563.081 1388.74 559.183C1387.85 555.309 1386.6 551.52 1386.12 547.572C1385.27 546.035 1385.33 541.68 1384.42 536.594C1383.81 533.18 1383.47 529.248 1382.68 525.544C1381.86 521.604 1378.64 518.433 1377.56 515.384C1375.71 510.168 1373.8 506.08 1370.73 508.403C1368.46 511.514 1366.93 515.332 1364.69 518.43C1362.43 521.542 1360.87 525.149 1358.58 528.212C1356.3 531.299 1353.82 534.249 1351.46 537.254C1349.1 540.259 1346.63 543.233 1344.16 546.144C1341.68 549.056 1337.96 550.754 1335.33 553.563C1332.31 556.207 1329.24 558.529 1325.99 560.824C1322.71 563.134 1320.27 566.606 1317.09 569.022C1313.91 571.438 1310.75 573.778 1308.05 576.791C1304.88 579.069 1301.45 580.988 1298.46 583.455C1295.47 585.922 1292.31 588.262 1289.44 590.885C1286.57 593.508 1284.2 596.651 1281.41 599.356C1278.63 602.061 1275.5 604.411 1272.74 607.165C1269.98 609.919 1268.3 613.696 1265.54 616.45C1262.78 619.203 1259.35 621.247 1256.54 623.904C1253.72 626.561 1251.07 629.446 1248.16 631.996C1245.24 634.521 1241.59 636.178 1238.5 638.538C1235.42 640.899 1233.39 644.522 1230.12 646.668C1227.38 649.47 1224.38 651.976 1221.32 654.36C1218.25 656.745 1214.78 658.778 1211.44 660.741C1208.08 662.68 1203.99 663.363 1200.4 664.891C1198.64 666.196 1195.39 670.005 1192.05 672.03C1188.26 674.345 1185.88 675.013 1185.48 669.472C1185.08 665.932 1180 667.737 1174.01 671.134C1170.85 672.924 1167.4 675.431 1163.62 678.096C1160.29 680.471 1155.59 681.377 1152.23 683.929C1148.67 686.631 1146.76 691.247 1143.75 693.565C1139.01 697.238 1134.32 698.819 1132.63 699.633C1129.26 701.836 1125.68 703.776 1122.58 706.174C1119.49 708.573 1117.46 712.483 1114.56 715.158C1111.66 717.832 1108.81 720.604 1106.14 723.502C1103.46 726.401 1100.4 729.035 1097.98 732.144C1095.53 735.267 1093.77 738.861 1091.56 742.169C1089.34 745.478 1086.05 748.089 1084.08 751.545C1082.12 755.002 1080.86 758.853 1079.15 762.42C1077.44 765.986 1075.76 769.6 1074.28 773.29C1072.8 776.98 1071.25 780.65 1069.97 784.415C1068.72 788.166 1068.49 792.231 1067.42 796.072C1066.35 799.912 1065.24 803.68 1064.36 807.572C1063.51 811.45 1062.17 815.218 1061.51 819.147C1060.83 823.052 1059.54 826.893 1059.01 830.839C1058.49 834.784 1059.07 838.863 1058.71 842.812C1058.35 846.76 1056.83 850.664 1056.61 854.629C1056.38 858.594 1057.04 862.632 1056.94 866.589C1056.86 870.571 1057.55 874.556 1057.57 878.506C1057.62 882.505 1057.67 886.441 1057.84 890.408C1058 894.374 1057.74 898.391 1058.02 902.327C1057.4 906.39 1056.68 910.447 1056.59 914.529C1056.5 918.611 1056.18 922.757 1056.48 926.841C1056.78 930.925 1058.44 934.864 1059.03 938.905C1059.63 942.946 1060.22 946.988 1060.99 950.993C1061.77 955.023 1061.58 959.223 1062.42 963.187C1063.13 967.259 1063.99 971.209 1064.36 975.251C1064.73 979.293 1066.46 983.191 1067.2 987.211C1067.95 991.23 1066.75 995.691 1068.56 999.485C1069.34 1003.51 1070.97 1007.24 1071.84 1011.26C1072.71 1015.27 1074.83 1019 1075.77 1022.97C1076.72 1026.97 1076.6 1031.23 1077.61 1035.19C1078.62 1039.19 1079.34 1043.22 1080.44 1047.19C1081.53 1051.14 1082.61 1055.13 1083.76 1059.07C1084.91 1063.02 1087.24 1066.61 1088.43 1070.52C1089.63 1074.44 1090.35 1078.64 1091.61 1082.55C1089.03 1079.53 1087.16 1075.8 1084.68 1072.72C1082.19 1069.65 1079.03 1067.12 1076.65 1063.95C1074.27 1060.78 1071.17 1058.15 1068.87 1054.94C1066.56 1051.72 1064.47 1048.32 1062.24 1045.07C1060 1041.81 1058.6 1037.98 1056.4 1034.68C1054.2 1031.37 1052.16 1028 1050.01 1024.67C1047.85 1021.33 1045.3 1018.3 1043.19 1014.93C1041.09 1011.57 1040.21 1007.47 1038.13 1004.09C1036.05 1000.72 1033.27 997.807 1031.2 994.43C1029.12 991.053 1025.76 988.478 1023.7 985.125C1021.62 981.748 1020.83 977.593 1018.73 974.23C1016.62 970.867 1013.63 968.083 1011.52 964.758C1009.41 961.433 1006.81 958.387 1004.62 955.104C1002.46 951.807 1000.76 948.182 998.523 944.927C996.29 941.672 995.47 937.407 993.164 934.194C990.858 930.98 988.293 928.045 985.89 924.887C984.212 921.311 982.562 917.784 980.656 914.371C978.737 910.935 975.412 908.245 973.858 904.662C972.305 901.078 970.945 897.383 970.418 893.401C968.814 889.395 965.996 884.962 969.349 881.672C972.133 878.292 975.204 875.52 976.356 871.599C977.508 867.679 976.709 863.337 977.004 859.105C977.299 854.874 979.237 850.919 979.449 846.767C979.662 842.615 979.691 838.537 980.611 834.492C981.52 830.487 983.064 826.855 985.397 823.252C986.578 819.605 986.55 815.205 988.731 812.173C990.887 809.155 995.145 807.825 997.86 805.162C1000.54 802.55 1003.06 799.773 1005.87 797.279C1008.74 794.757 1011.79 792.286 1014.38 789.692C1016.54 786.062 1018.84 782.573 1021.34 779.259C1023.84 775.946 1025.15 771.679 1028.17 768.709C1030.46 765.196 1034.4 762.821 1036.37 759.202C1038.34 755.52 1038.32 750.857 1040.01 747.08C1041.69 743.303 1043.71 739.655 1045.16 735.755C1046.62 731.854 1048.96 728.274 1050.25 724.308C1051.54 720.342 1052.33 716.243 1053.42 712.226C1054.53 708.233 1055.25 704.114 1056.27 700.076C1057.3 696.063 1059.54 692.352 1060.56 688.315C1061.56 684.291 1061.52 679.991 1062.56 675.978C1063.59 671.965 1065.32 668.035 1066.43 664.042C1066.77 660.069 1066.26 655.948 1066.69 651.996C1067.11 648.044 1067.61 644.051 1068.46 640.173C1069.32 636.295 1071.35 632.735 1072.96 629.037C1073.38 625.148 1071.58 621.067 1071.52 617.231C1071.45 613.371 1071.06 609.506 1070.91 605.625C1070.76 601.745 1071.7 597.85 1071.88 593.975C1071.36 590.117 1072.22 586.139 1071.77 582.277C1071.31 578.416 1069.5 574.723 1069.08 570.871C1068.68 567.006 1068.98 563.061 1068.6 559.22C1068.23 555.341 1066.87 551.583 1066.47 547.718C1066.1 543.839 1066.73 539.9 1066.33 536.034C1065.96 532.155 1066.1 528.27 1065.71 524.404C1065.31 520.539 1063.5 516.846 1063.04 512.984C1062.59 509.123 1061.49 505.374 1060.98 501.541C1060.47 497.707 1061.5 493.631 1060.91 489.815C1060.32 485.999 1060.44 482.028 1059.75 478.205C1059.07 474.407 1056.15 470.967 1055.36 467.138C1054.9 463.114 1056.15 458.625 1054.98 454.756C1053.8 450.887 1050.54 447.744 1048.9 444.015C1047.28 440.311 1046.66 436.121 1044.86 432.49C1043.04 428.835 1041.36 425.259 1039.63 421.649C1038.8 417.422 1036.65 413.699 1035.14 409.8C1033.63 405.839 1031.04 402.468 1029.11 398.681C1027.17 394.933 1026.16 390.679 1024.12 386.963C1022.04 383.261 1019.21 379.966 1017.32 376.191C1015.43 372.415 1013.97 368.45 1012.52 364.485C1009.82 361.471 1008.53 357.408 1006.14 354.15C1003.74 350.893 1000.73 348.084 998.468 344.718C996.203 341.352 993.986 337.958 991.745 334.579C989.503 331.199 987.214 327.847 984.841 324.575C982.469 321.303 979.076 318.943 976.394 315.915C973.592 313.406 971.693 309.893 968.85 307.312C966.007 304.731 962.733 302.689 960.045 299.986C957.357 297.283 955.141 294.115 952.787 291.154C950.434 288.194 947.204 285.836 945.388 282.468C943.338 280.59 943.234 273.269 941.601 268.152C939.645 262.029 938.001 258.401 934.013 266.505C932.769 270.544 930.688 274.195 928.927 277.951C927.155 281.746 924.828 285.249 922.681 288.842C920.535 292.434 917.541 295.452 915.2 298.931C912.859 302.41 911.82 306.749 909.451 310.179C907.082 313.61 904.609 316.971 902.359 320.495C900.108 324.018 898.346 327.775 896.418 331.467C894.49 335.159 892.007 338.559 890.558 342.522C888.39 345.966 887.194 349.976 885.154 353.475C883.114 356.973 879.225 359.444 877.289 363.011C875.354 366.579 874.941 370.942 873.148 374.589C871.341 378.211 869.173 381.654 867.47 385.345C865.767 389.036 864.306 392.812 862.756 396.544C861.205 400.276 859.374 403.912 857.951 407.698C856.529 411.485 854.649 415.149 853.355 418.99C852.062 422.832 850.362 426.585 849.221 430.467C848.055 434.363 847.208 438.366 846.181 442.279C845.154 446.192 844.231 450.173 843.332 454.141C842.458 458.095 843.052 462.361 842.33 466.356C841.57 470.341 840.543 474.254 839.935 478.279C839.327 482.304 839.031 486.311 838.562 490.353C838.116 494.382 835.86 498.231 835.53 502.29C835.223 506.334 836.686 510.486 836.518 514.548C836.35 518.609 835.091 522.624 835.086 526.688C835.08 530.753 836.847 534.761 836.966 538.818C837.085 542.875 836.779 546.92 837.047 550.956C837.315 554.991 836.849 559.096 837.28 563.134C837.711 567.172 839.622 571.097 840.202 575.114C840.047 579.2 837.647 583.357 837.704 587.418C837.775 591.503 839.58 595.522 839.838 599.595C840.095 603.669 839.457 607.809 839.926 611.857C840.395 615.906 840.877 619.979 841.519 623.992C842.161 628.005 844.151 631.788 844.955 635.803C845.76 639.819 846.647 643.755 847.586 647.726C848.525 651.696 849.119 655.737 850.192 659.662C851.266 663.587 851.518 667.761 852.702 671.654C853.887 675.547 855.759 679.237 857.03 683.112C858.301 686.988 859.24 690.958 860.598 694.816C861.955 698.674 862.822 702.686 864.252 706.502C865.72 710.328 868.031 713.829 869.474 717.669C870.918 721.509 872.666 725.206 874.11 729.046C875.554 732.887 875.616 737.235 877.06 741.075C878.503 744.915 881.547 748.122 883.039 751.934C884.531 755.746 885.975 759.586 887.516 763.371C889.056 767.155 890.524 770.981 892.151 774.748C893.778 778.514 894.759 782.557 896.483 786.268C898.206 789.979 899.616 793.871 901.436 797.526C903.271 801.206 905.94 804.435 907.895 808.044C909.85 811.654 911.685 815.333 913.785 818.859C911.239 815.622 909.442 811.728 906.907 808.453C904.348 805.193 901.827 801.942 899.316 798.654C896.805 795.365 892.763 793.219 890.325 789.888C887.886 786.558 886.704 782.277 884.314 778.918C881.91 775.536 878.402 772.92 876.108 769.505C873.825 766.053 872.07 762.232 869.883 758.723C867.697 755.215 866.404 751.191 864.349 747.575C862.294 743.959 860.232 740.444 858.321 736.744C856.449 733.054 854.456 729.435 852.752 725.648C850.847 722.235 849.282 718.465 847.044 715.147C844.835 711.878 842.335 708.777 840.015 705.539C837.695 702.302 833.781 700.21 831.571 696.941C829.309 693.637 829.039 689.152 827.134 685.739C825.228 682.327 821.943 679.26 820.548 675.617C821.524 671.894 821.724 667.943 822.337 664.205C822.949 660.467 825.421 656.88 825.743 653.085C826.051 649.265 826.105 645.397 826.188 641.578C826.27 637.759 825.803 633.936 825.747 630.1C825.667 626.278 823.915 622.519 823.773 618.701C823.631 614.883 824.374 611.037 824.232 607.219C824.089 603.401 824.771 599.559 824.705 595.761C824.639 591.964 824.783 588.141 824.88 584.346C824.977 580.552 824.457 576.694 824.778 572.898C824.669 568.803 824.048 564.713 824.088 560.597C824.142 556.505 826.161 552.47 826.302 548.36C826.417 544.264 825.983 540.163 826.099 536.067C826.215 531.971 825.068 527.863 825.083 523.76C825.099 519.658 826.526 515.546 826.393 511.465C826.26 507.383 825.6 503.284 825.18 499.207C824.87 495.099 824.637 491.012 824.292 486.956C823.958 482.861 823.116 478.835 822.758 474.755C822.4 470.675 821.246 466.667 820.888 462.587C820.529 458.507 820.881 454.372 820.547 450.278C818.801 446.418 818.478 442.286 817.539 438.315C816.613 434.369 814.004 430.686 813.96 426.425C812.817 422.604 811.955 418.879 810.764 415.086C809.597 411.28 810.086 406.936 808.871 403.157C807.642 399.354 805.888 395.758 804.634 391.969C803.381 388.18 801.112 384.752 799.786 381.005C798.484 377.244 798.541 372.988 797.191 369.255C795.827 365.498 794.574 361.709 793.2 357.989C791.812 354.246 788.945 351.066 787.508 347.351C786.072 343.635 785.32 339.654 783.835 335.966C782.375 332.264 780.828 328.58 779.319 324.907C777.82 321.195 777.14 317.171 775.607 313.512C774.074 309.852 772.624 306.112 771.029 302.456C769.457 298.786 766.415 295.805 764.82 292.149C762.735 288.872 760.319 285.915 758.044 282.813C755.732 279.7 754.529 275.72 752.061 272.729C749.593 269.738 746.922 266.897 744.347 264C741.772 261.102 737.895 259.409 735.248 256.553C732.614 253.722 731.615 249.368 728.967 246.513C726.32 243.657 722.17 242.218 719.595 239.32C717.021 236.423 715.515 232.587 713.071 229.582C710.627 226.577 707.011 224.442 704.746 221.301C702.482 218.161 700.911 214.491 698.898 211.172C696.875 207.892 695.881 204.05 694.169 200.526C692.287 196.875 689.099 193.977 687.248 190.436C685.366 186.785 684.312 182.784 682.461 179.243C680.554 175.605 679.366 171.65 677.467 168.137C675.568 164.624 672.387 161.626 670.425 158.117C668.422 154.535 667.316 150.5 665.32 147.043C663.269 143.489 660.592 140.361 658.548 136.932C656.504 133.502 655.232 129.402 653.077 126.005C650.922 122.607 648.939 118.949 646.702 115.632C644.464 112.314 640.825 109.806 638.491 106.544C636.115 103.21 634.581 99.3253 632.126 96.1334C629.671 92.9415 625.626 90.9577 623.04 87.8737C620.426 84.7413 618.33 81.2778 615.613 78.3016C612.858 75.3153 609.941 72.5512 607.082 69.721C604.224 66.8909 601.986 63.3484 598.972 60.6401C595.973 57.9559 592.388 55.9321 589.209 53.3837C586.058 50.8837 582.422 49.0505 579.092 46.6863C575.761 44.322 572.687 41.8424 569.267 39.6586C565.876 37.5232 562.316 35.7104 558.745 33.7107C555.174 31.711 552.051 29.2593 548.391 27.4401C544.821 25.6654 541.686 22.8018 537.937 21.1629C534.278 19.5687 530.423 18.2488 526.584 16.7903C522.86 15.3625 518.552 15.4328 514.648 14.1407C510.883 12.8654 507.527 10.0651 503.569 8.90141C499.763 7.77861 495.551 7.79311 491.576 6.76796C487.601 5.74282 483.817 4.76878 479.801 3.89615C475.786 3.02352 471.866 1.25727 467.806 0.474823C463.916 2.72095 460.448 6.59238 456.534 8.85245C456.234 12.7969 454.904 16.4654 454.442 20.4072C453.979 24.3489 454.739 28.4551 454.2 32.3764C453.661 36.2977 451.798 40.0481 451.211 43.9973C450.624 47.9464 449.555 51.7869 448.953 55.7119C448.352 59.637 448.748 63.7273 448.185 67.6626C447.622 71.5978 448.143 75.6808 447.68 79.6226C447.217 83.5643 445.435 87.3974 445.097 91.3317C444.773 95.2902 445.414 99.3034 445.291 103.275C445.143 107.26 445.504 111.178 445.606 115.148C445.707 119.119 444.688 123.156 445.101 127.108C445.5 131.036 447.165 134.813 447.889 138.746C448.613 142.679 447.864 146.851 448.973 150.723C449.88 154.583 451.908 158.151 453.026 161.985C454.155 165.782 455.101 169.652 456.392 173.451C457.655 177.202 459.361 180.826 460.749 184.57C462.123 188.289 464.475 191.637 465.888 195.367C467.3 199.096 466.535 203.631 467.933 207.337C469.346 211.066 472.437 214.245 473.787 217.978C474.166 221.982 474.347 226.035 475.639 229.835C476.93 233.634 478 237.496 479.461 241.198C480.911 244.938 482.195 248.612 483.103 252.472C483.982 256.283 484.972 260.063 484.621 264.198C485.442 268.076 485.969 272.058 486.998 275.848C488.04 279.662 489.525 283.35 490.788 287.101C492.052 290.852 493.108 294.69 494.579 298.354C496.049 302.017 497.741 305.617 499.419 309.193C501.073 312.783 503.721 315.864 505.583 319.366C507.43 322.845 509.664 326.1 511.68 329.481C513.696 332.861 514.774 336.848 516.935 340.145C519.096 343.443 521.068 346.913 523.399 350.113C525.729 353.312 528.477 356.174 530.938 359.265C533.172 362.521 535.105 365.981 537.325 369.212C539.559 372.467 541.948 375.601 544.206 378.842C546.464 382.083 548.097 385.749 550.379 388.977C552.662 392.204 556.741 394.136 559.033 397.325C561.34 400.538 562.207 404.776 564.572 407.923C566.937 411.07 570.067 413.646 572.48 416.766C574.894 419.885 576.638 423.52 579.099 426.611C581.561 429.703 583.939 432.874 586.459 435.9C588.979 438.925 592.416 441.195 595.033 444.165C597.403 447.6 599.99 450.909 602.456 454.287C604.922 457.666 607.112 461.237 609.637 464.549C612.176 467.886 615.487 470.552 618.084 473.823C620.682 477.094 622.6 480.918 625.255 484.123C627.911 487.328 629.736 491.27 632.44 494.447C635.144 497.624 638.742 500.06 641.48 503.185C644.233 506.334 646.723 509.699 649.51 512.796C652.297 515.893 654.505 519.55 657.316 522.633C660.127 525.716 663.768 528.062 666.604 531.131C669.439 534.2 672.143 537.377 675.002 540.432C677.861 543.487 680.814 546.424 683.673 549.479C686.532 552.535 689.815 555.152 692.675 558.207C695.613 561.12 698.059 564.575 701.104 567.394C704.149 570.213 707.077 573.164 710.195 575.941C713.298 578.694 716.884 580.943 720.012 583.682C723.14 586.421 726.244 589.174 729.385 591.937C732.513 594.676 735.348 597.745 738.418 600.55C741.511 603.341 744.897 605.802 747.908 608.673C750.919 611.544 754.168 614.213 757.071 617.178C759.975 620.143 761.542 624.364 764.305 627.475C767.067 630.586 771.185 632.527 773.782 635.798C776.366 639.045 778.743 643.442 781.113 646.877C777.859 644.533 773.549 642.315 770.364 639.867C767.179 637.419 764.355 634.537 761.242 632.047C758.129 629.557 754.524 627.61 751.456 625.03C748.388 622.45 745.412 619.752 742.392 617.144C739.372 614.536 736.924 611.244 733.914 608.598C730.904 605.951 727.65 603.608 724.64 600.962C721.631 598.316 718.318 596.038 715.322 593.416C712.303 590.808 709.82 587.568 706.776 584.974C703.731 582.38 700.839 579.602 697.76 577.06C694.682 574.518 691.091 572.595 687.978 570.105C684.865 567.615 682.736 563.816 679.54 561.406C676.345 558.997 672.788 557.021 669.524 554.715C666.123 552.843 661.874 552.46 658.425 550.615C655 548.757 651.713 546.69 648.254 544.884C644.819 543.064 642.042 539.928 638.597 538.146C635.127 536.378 631.901 534.083 628.397 532.367C624.893 530.651 620.611 530.544 617.097 528.866C613.583 527.188 610.278 525.035 606.744 523.433C603.209 521.832 599.811 519.797 596.257 518.271C592.664 516.735 589.211 514.829 585.611 513.394C581.974 511.948 578.258 510.87 574.614 509.525C571.047 507.587 567.052 506.639 563.448 504.916C559.792 503.159 556.163 501.45 552.47 499.908C548.776 498.366 545.427 495.69 541.621 494.342C537.814 492.995 533.417 493.47 529.559 492.313C525.677 491.17 522.262 488.436 518.354 487.469C514.445 486.502 510.312 486.375 506.376 485.585C502.416 484.809 498.369 484.663 494.383 484.064C490.396 483.465 486.477 482.536 482.474 482.076C478.47 481.615 474.49 480.915 470.47 480.593C466.45 480.271 462.416 480.537 458.365 480.33C454.314 480.122 450.322 479.848 446.317 479.775C442.312 479.702 438.279 478.743 434.23 478.76C430.218 478.788 426.174 479.317 422.142 479.421C418.111 479.525 414.116 480.251 410.078 480.456C406.064 480.646 401.99 479.839 397.941 480.081C393.893 480.324 389.975 481.909 385.979 482.185C381.958 482.476 377.933 482.479 373.916 482.832C369.885 483.161 365.965 484.296 361.948 484.649C357.932 485.002 353.74 483.489 349.737 483.866C345.734 484.243 341.746 484.87 337.743 485.247C333.716 485.638 329.877 487.693 325.874 488.07C321.871 488.448 317.789 488.129 313.796 488.468C309.804 488.807 305.642 487.793 301.649 488.132C297.542 488.44 293.589 490.69 289.517 490.946C285.42 491.217 281.28 491.189 277.204 491.383C273.127 491.577 268.974 491.525 264.88 491.633C260.771 491.716 256.663 490.962 252.561 490.944C248.46 490.927 244.317 492.513 240.208 492.371C236.099 492.23 232.098 490.156 228.006 489.875C223.913 489.595 219.882 489.086 215.778 488.619C211.675 488.152 207.725 487.338 203.648 486.694C199.61 486.06 195.636 485.26 191.596 484.401C187.594 483.553 183.396 483.591 179.407 482.542C175.457 481.503 171.325 480.987 167.398 479.709C163.522 478.466 159.8 476.65 155.947 475.167C151.951 474.606 147.924 474.997 143.956 474.71C139.988 474.422 136.015 473.009 131.999 472.974C127.984 472.939 123.984 473.154 119.966 473.282C115.972 473.396 112 474.271 107.975 474.499C103.989 474.738 99.9444 473.592 95.9238 473.882C92.2329 473.628 88.55 474.336 84.9086 474.279C81.2048 474.226 77.4989 473.722 73.8623 473.952C70.1875 474.172 66.401 474.199 62.7766 474.841C59.1522 475.483 55.786 477.297 52.2678 478.458C48.8362 479.601 45.8307 481.594 42.4848 483.333C38.9069 485.785 34.6451 487.053 30.7881 489.022C26.9311 490.991 23.3328 493.52 19.2905 495.112C15.2864 496.715 11.155 498.488 7.05966 499.821C-3.07461 501.353 -0.012749 507.772 7.14816 509.182L6.87216 509.373Z" fill="#A480EF"/>
</svg>
