<svg width="988" height="622" viewBox="0 0 988 622" fill="none" xmlns="http://www.w3.org/2000/svg">
<g clip-path="url(#clip0_33_1523)">
<path d="M988 490.027C986.366 490.613 984.706 491.136 983.103 491.763C980.473 492.795 977.485 492.852 974.803 493.775C972.126 494.697 969.704 496.351 967.016 497.232C964.324 498.118 961.533 498.694 958.867 499.611C956.185 500.534 953.539 501.55 950.914 502.586C948.274 503.623 946.054 505.535 943.512 506.759C940.965 507.982 937.718 507.925 935.3 509.413C932.914 510.885 931.041 513.202 928.816 515.005C926.663 516.752 924.894 518.955 922.928 521.075C920.915 523.05 918.747 524.849 916.89 526.943C915.022 529.047 913.341 531.286 911.624 533.5C909.902 535.718 907.806 537.667 906.224 539.984C904.642 542.301 903.356 544.825 901.913 547.23C900.466 549.635 899.486 552.289 898.168 554.772C896.85 557.25 894.438 559.193 893.24 561.733C892.047 564.268 892.171 567.404 891.082 569.995C889.998 572.582 888.55 575.013 887.565 577.646C886.584 580.274 886.149 583.083 885.262 585.748C884.375 588.412 883.01 590.91 882.206 593.6C881.402 596.29 879.913 598.799 879.182 601.505C878.45 604.221 879.031 607.269 878.367 609.99C877.698 612.722 877.143 615.464 876.536 618.195C876.24 619.47 875.888 620.73 875.545 621.989H987.995V490.017L988 490.027Z" fill="#A480EF"/>
<path d="M786.808 617.304C785.983 614.385 785.989 611.426 786.066 608.87C786.16 605.978 787.773 603.609 788.821 601.116C789.874 598.602 790.621 595.943 792.426 593.756C794.133 591.688 796.291 589.936 798.47 588.096C800.534 586.354 803.056 585.146 805.38 583.55C807.641 582 809.275 579.419 811.63 577.952C814.001 576.48 817.093 576.174 819.417 574.738C821.834 573.24 823.79 571.11 825.989 569.596C828.386 567.948 831.058 566.751 832.987 565.009C835.099 562.982 836.193 560.142 837.713 557.809C839.269 555.42 840.048 552.73 841.163 550.107C842.268 547.51 843.575 545.027 844.426 542.29C845.266 539.59 846.667 537.035 847.419 534.287C848.171 531.545 847.87 528.487 848.7 525.776C849.535 523.045 851.714 520.795 852.798 518.183C853.888 515.56 854.121 512.528 855.631 510.107C856.746 507.629 857.851 505.193 858.961 502.716C860.076 500.238 861.384 497.849 862.494 495.366C863.604 492.888 865.254 490.649 866.359 488.166C867.463 485.683 868.542 483.19 869.642 480.702C870.737 478.214 872.018 475.809 873.107 473.321C874.197 470.833 874.228 467.884 875.307 465.391C876.386 462.897 878.212 460.725 879.281 458.227C880.349 455.729 881.693 453.344 882.746 450.841C883.799 448.337 883.965 445.461 885.008 442.952C886.05 440.443 887.84 438.24 888.867 435.721C889.894 433.202 890.299 430.439 891.31 427.915C892.317 425.391 893.453 422.918 894.444 420.389C895.434 417.859 896.098 415.206 897.068 412.666C898.039 410.126 899.916 407.933 900.866 405.388C901.815 402.843 901.971 400.003 902.894 397.447C903.823 394.892 904.476 392.249 905.374 389.683C906.276 387.117 908.471 385.002 909.347 382.431C910.224 379.86 909.71 376.823 910.561 374.242C911.407 371.66 912.273 369.095 913.093 366.503C913.912 363.911 914.721 361.206 915.51 358.604C916.968 356.401 919.157 354.54 920.63 352.347C922.103 350.15 923.172 347.687 924.645 345.49C926.118 343.297 928.245 341.54 929.708 339.342C931.176 337.145 932.084 334.574 933.537 332.371C934.989 330.163 937.116 328.395 938.543 326.177C939.974 323.953 940.877 321.361 942.272 319.122C944.29 317.313 946.339 315.468 948.025 313.306C949.685 311.176 950.453 308.47 951.807 306.081C953.14 303.728 955.308 301.773 956.356 299.244C957.399 296.73 958.172 294.076 958.95 291.469C959.733 288.841 959.931 286.078 960.454 283.43C960.994 280.708 961.668 278.06 961.948 275.406C962.675 272.742 963.702 270.15 964.221 267.48C964.745 264.775 964.589 261.976 964.864 259.265C965.144 256.538 965.108 253.822 965.113 251.086C965.113 248.359 965.014 245.664 964.713 242.922C964.418 240.232 963.536 237.5 962.919 234.794C963.453 232.006 964.511 229.259 964.314 226.563C964.112 223.826 963.816 221.053 963.209 218.363C962.607 215.694 961.793 213.05 961.139 210.376C960.486 207.706 959.604 205.099 959.241 202.378C958.639 201.32 958.644 198.314 957.959 194.805C957.498 192.447 957.228 189.736 956.662 187.175C956.061 184.464 953.809 182.303 953.031 180.204C951.703 176.617 950.339 173.802 948.243 175.43C946.708 177.602 945.686 180.245 944.161 182.412C942.63 184.583 941.577 187.087 940.031 189.233C938.48 191.379 936.794 193.447 935.186 195.551C933.578 197.656 931.897 199.724 930.206 201.766C928.526 203.798 925.952 205.016 924.152 206.975C922.083 208.836 919.987 210.469 917.746 212.086C915.495 213.714 913.845 216.129 911.666 217.84C909.498 219.54 907.319 221.193 905.467 223.293C903.309 224.894 900.928 226.252 898.889 227.994C896.845 229.735 894.677 231.363 892.716 233.203C890.76 235.038 889.137 237.236 887.238 239.133C885.34 241.03 883.192 242.689 881.319 244.606C879.447 246.529 878.305 249.168 876.417 251.08C874.529 252.993 872.184 254.444 870.254 256.31C868.325 258.176 866.53 260.193 864.527 261.981C862.525 263.764 860.009 264.93 857.903 266.599C855.802 268.258 854.417 270.793 852.181 272.301C850.314 274.26 848.254 276.023 846.158 277.697C844.052 279.381 841.682 280.812 839.373 282.201C837.07 283.585 834.253 284.083 831.768 285.161C830.565 286.078 828.35 288.737 826.057 290.178C823.463 291.811 821.813 292.309 821.481 288.473C821.17 286.021 817.674 287.327 813.555 289.717C811.387 290.977 809.016 292.744 806.433 294.626C804.14 296.295 800.898 296.963 798.61 298.757C796.177 300.659 794.89 303.868 792.826 305.5C789.568 308.082 786.341 309.212 785.179 309.797C782.871 311.352 780.407 312.715 778.285 314.41C776.117 316.142 774.799 318.821 772.823 320.687C770.81 322.59 768.901 324.502 767.075 326.529C765.228 328.582 763.164 330.401 761.498 332.578C759.828 334.765 758.64 337.259 757.146 339.56C755.652 341.867 753.38 343.707 752.057 346.112C750.734 348.517 749.894 351.186 748.737 353.679C747.586 356.167 746.45 358.671 745.454 361.237C744.463 363.792 743.425 366.347 742.58 368.965C741.739 371.572 741.625 374.392 740.925 377.056C740.23 379.705 739.478 382.333 738.912 385.023C738.347 387.703 737.475 390.331 737.034 393.047C736.593 395.752 735.732 398.417 735.405 401.148C735.079 403.875 735.519 406.684 735.302 409.426C735.084 412.163 734.067 414.863 733.948 417.611C733.828 420.358 734.311 423.131 734.29 425.873C734.269 428.63 734.773 431.367 734.835 434.109C734.902 436.867 734.97 439.603 735.12 442.33C735.271 445.087 735.115 447.85 735.338 450.566C734.944 453.381 734.487 456.195 734.451 459.01C734.415 461.835 734.238 464.711 734.482 467.526C734.726 470.335 735.914 473.051 736.36 475.845C736.806 478.634 737.242 481.423 737.812 484.185C738.388 486.964 738.3 489.871 738.917 492.608C739.446 495.402 740.079 498.128 740.365 500.933C740.655 503.763 741.895 506.411 742.434 509.174C742.974 511.921 742.206 515.036 743.477 517.649C744.053 520.432 745.225 522.983 745.858 525.745C746.491 528.513 748.001 531.069 748.691 533.816C749.38 536.568 749.339 539.507 750.076 542.244C750.812 544.981 751.347 547.785 752.135 550.511C752.918 553.232 753.707 555.964 754.537 558.685C755.362 561.396 757.011 563.853 757.883 566.559C758.749 569.254 759.283 572.152 760.186 574.847C758.37 572.794 757.048 570.223 755.31 568.119C753.567 566.009 751.352 564.289 749.676 562.132C747.995 559.971 745.832 558.167 744.209 555.969C742.585 553.766 741.112 551.444 739.535 549.205C737.958 546.971 736.951 544.338 735.416 542.078C733.88 539.813 732.423 537.506 730.913 535.22C729.409 532.935 727.593 530.856 726.115 528.555C724.631 526.258 723.988 523.423 722.52 521.117C721.052 518.81 719.096 516.809 717.633 514.503C716.17 512.191 713.82 510.444 712.352 508.137C710.884 505.831 710.303 502.959 708.819 500.658C707.336 498.362 705.25 496.454 703.746 494.174C702.242 491.888 700.426 489.825 698.896 487.56C697.36 485.295 696.162 482.812 694.59 480.578C693.018 478.344 692.406 475.405 690.788 473.202C689.169 470.999 687.359 468.998 685.678 466.837C684.485 464.39 683.318 461.949 681.964 459.611C680.594 457.253 678.286 455.423 677.181 452.961C676.081 450.514 675.106 447.959 674.691 445.207C673.555 442.454 671.563 439.412 673.856 437.115C675.754 434.757 677.86 432.808 678.618 430.092C679.375 427.371 678.789 424.385 678.955 421.462C679.116 418.621 680.428 415.786 680.548 412.909C680.667 410.017 680.646 407.208 681.243 404.424C681.834 401.646 682.882 399.127 684.454 396.603C685.242 394.073 685.185 391.03 686.664 388.905C688.132 386.796 691.068 385.837 692.925 383.976C694.756 382.141 696.478 380.202 698.403 378.461C700.359 376.693 702.46 374.957 704.229 373.132C705.691 370.593 707.248 368.167 708.954 365.855C710.661 363.538 711.527 360.573 713.587 358.489C715.143 356.038 717.851 354.369 719.174 351.839C720.512 349.279 720.445 346.06 721.581 343.427C722.722 340.783 724.076 338.259 725.051 335.558C726.026 332.853 727.624 330.349 728.464 327.597C729.305 324.85 729.818 321.999 730.565 319.221C731.307 316.447 731.748 313.597 732.433 310.798C733.118 308.009 734.632 305.417 735.296 302.624C735.955 299.83 735.893 296.86 736.567 294.066C737.242 291.272 738.404 288.561 739.13 285.778C739.322 283.025 738.948 280.18 739.203 277.443C739.457 274.691 739.773 271.949 740.323 269.253C740.873 266.573 742.253 264.091 743.332 261.509C743.602 258.819 742.315 256.02 742.232 253.351C742.154 250.671 741.848 248.017 741.713 245.337C741.578 242.668 742.185 239.957 742.289 237.272C741.905 234.613 742.445 231.85 742.102 229.191C741.76 226.527 740.458 223.987 740.147 221.323C739.836 218.654 740.007 215.937 739.716 213.273C739.42 210.604 738.44 208.007 738.15 205.343C737.864 202.673 738.253 199.931 737.958 197.267C737.662 194.598 737.729 191.892 737.418 189.228C737.107 186.564 735.815 184.018 735.473 181.359C735.13 178.7 734.332 176.114 733.942 173.46C733.553 170.811 734.238 167.992 733.797 165.348C733.356 162.705 733.408 159.957 732.895 157.319C732.386 154.691 730.348 152.343 729.756 149.72C729.409 146.932 730.233 143.832 729.372 141.163C728.516 138.509 726.239 136.358 725.067 133.792C723.91 131.247 723.448 128.349 722.167 125.861C720.875 123.353 719.677 120.896 718.453 118.408C717.846 115.495 716.315 112.945 715.242 110.26C714.157 107.538 712.342 105.216 710.972 102.635C709.603 100.054 708.866 97.1303 707.409 94.5904C705.951 92.0558 703.959 89.801 702.605 87.2146C701.256 84.6229 700.234 81.8965 699.186 79.1648C697.277 77.1019 696.369 74.3133 694.673 72.0844C692.977 69.8556 690.876 67.9429 689.289 65.626C687.701 63.3142 686.124 60.9973 684.542 58.6803C682.96 56.3634 681.352 54.062 679.671 51.8228C677.985 49.5836 675.64 47.9871 673.752 45.9086C671.786 44.2033 670.448 41.7878 668.456 40.0359C666.479 38.3046 664.181 36.9 662.303 35.0547C660.415 33.2042 658.854 31.048 657.199 29.0161C655.534 26.9739 653.292 25.3826 651.996 23.0864C650.548 21.8061 650.413 16.7472 649.246 13.2277C647.851 9.01881 646.673 6.52563 643.971 12.1547C643.156 14.9589 641.73 17.4987 640.542 20.1163C639.349 22.7495 637.761 25.2064 636.309 27.7099C634.861 30.2031 632.817 32.3283 631.23 34.7489C629.648 37.1643 628.953 40.1758 627.35 42.5809C625.742 44.9911 624.051 47.3236 622.541 49.7805C621.021 52.2478 619.833 54.8447 618.531 57.4208C617.229 59.9917 615.543 62.3709 614.573 65.1077C613.1 67.4972 612.316 70.291 610.931 72.722C609.541 75.1633 606.88 76.8997 605.573 79.3774C604.265 81.8602 604.027 84.8872 602.808 87.4115C601.589 89.941 600.115 92.3357 598.979 94.9014C597.843 97.4672 596.853 100.085 595.81 102.687C594.762 105.289 593.533 107.818 592.578 110.451C591.624 113.09 590.353 115.624 589.491 118.294C588.63 120.963 587.494 123.57 586.721 126.266C585.954 128.961 585.404 131.739 584.729 134.461C584.055 137.182 583.443 139.939 582.867 142.681C582.286 145.423 582.753 148.368 582.27 151.13C581.788 153.893 581.098 156.609 580.719 159.387C580.336 162.166 580.164 164.954 579.879 167.748C579.594 170.537 578.079 173.232 577.892 176.031C577.711 178.825 578.764 181.691 578.681 184.495C578.598 187.294 577.773 190.093 577.789 192.898C577.809 195.697 579.075 198.464 579.194 201.274C579.314 204.073 579.142 206.872 579.365 209.671C579.589 212.459 579.308 215.3 579.63 218.094C579.952 220.872 581.332 223.583 581.757 226.361C581.684 229.186 580.05 232.078 580.133 234.888C580.211 237.707 581.492 240.475 581.715 243.28C581.938 246.089 581.529 248.966 581.887 251.759C582.245 254.553 582.623 257.363 583.101 260.141C583.578 262.914 584.989 265.511 585.575 268.268C586.161 271.021 586.82 273.742 587.505 276.479C588.189 279.21 588.63 281.994 589.403 284.71C590.176 287.421 590.399 290.298 591.245 292.983C592.09 295.667 593.429 298.202 594.342 300.866C595.255 303.531 595.94 306.278 596.91 308.926C597.875 311.575 598.523 314.353 599.534 316.976C600.572 319.604 602.211 322.004 603.238 324.647C604.265 327.281 605.516 329.836 606.548 332.479C607.575 335.118 607.658 338.129 608.701 340.762C609.743 343.396 611.87 345.599 612.934 348.221C614.002 350.844 615.024 353.482 616.129 356.09C617.234 358.697 618.282 361.325 619.439 363.911C620.596 366.498 621.317 369.286 622.536 371.842C623.755 374.397 624.766 377.072 626.063 379.591C627.36 382.11 629.238 384.323 630.623 386.796C632.008 389.268 633.315 391.803 634.799 394.218C633.004 392 631.733 389.325 629.944 387.086C628.154 384.857 626.375 382.628 624.606 380.374C622.842 378.124 620.03 376.678 618.298 374.397C616.565 372.122 615.725 369.178 614.044 366.861C612.363 364.544 609.899 362.776 608.281 360.418C606.662 358.059 605.427 355.431 603.887 353.021C602.346 350.611 601.412 347.838 599.965 345.365C598.523 342.898 597.034 340.472 595.701 337.938C594.373 335.408 592.957 332.92 591.753 330.318C590.399 327.98 589.284 325.378 587.702 323.108C586.14 320.879 584.382 318.738 582.753 316.536C581.119 314.327 578.39 312.907 576.829 310.678C575.241 308.413 575.008 305.308 573.649 302.976C572.253 300.581 569.992 298.549 569.001 296.03C569.644 293.444 569.753 290.717 570.137 288.121C570.526 285.503 572.212 283.03 572.388 280.403C572.565 277.769 572.57 275.09 572.591 272.446C572.611 269.808 572.259 267.159 572.176 264.516C572.093 261.877 570.848 259.291 570.713 256.647C570.578 254.014 571.065 251.345 570.936 248.706C570.806 246.068 571.237 243.409 571.159 240.776C571.081 238.138 571.143 235.51 571.18 232.871C571.211 230.233 570.822 227.59 571.014 224.956C570.905 222.126 570.427 219.301 570.427 216.466C570.427 213.636 571.792 210.822 571.844 207.991C571.896 205.161 571.548 202.321 571.595 199.491C571.641 196.661 570.811 193.825 570.791 190.995C570.77 188.165 571.724 185.304 571.584 182.474C571.439 179.649 570.972 176.824 570.645 174.009C570.396 171.179 570.194 168.354 569.924 165.54C569.654 162.715 569.037 159.926 568.757 157.112C568.477 154.297 567.647 151.535 567.362 148.715C567.076 145.895 567.284 143.029 567.004 140.204C565.759 137.545 565.499 134.704 564.82 131.967C564.145 129.236 562.304 126.727 562.242 123.778C561.427 121.15 560.784 118.584 559.933 115.967C559.082 113.349 559.394 110.343 558.517 107.73C557.635 105.123 556.39 102.63 555.477 100.033C554.564 97.4361 552.966 95.0777 552.027 92.4912C551.088 89.9047 551.099 86.9606 550.129 84.3793C549.159 81.8032 548.261 79.1856 547.265 76.6198C546.269 74.0489 544.251 71.8823 543.229 69.3217C542.207 66.7611 541.637 64.0191 540.589 61.4741C539.541 58.9239 538.436 56.3997 537.368 53.865C536.294 51.3252 535.796 48.5365 534.701 46.0123C533.607 43.4828 532.559 40.9274 531.443 38.4083C530.323 35.8892 528.186 33.8522 527.05 31.3486C525.576 29.0939 523.885 27.0775 522.267 24.9524C520.638 22.8168 519.766 20.0749 518.029 18.0378C516.286 15.9956 514.423 14.0415 512.613 12.0718C510.797 10.0969 508.1 8.95143 506.253 7.00768C504.406 5.06393 503.67 2.06796 501.823 0.124212C501.781 0.0775622 501.729 0.0412789 501.683 -0.00537109H329.546C330.376 2.1198 331.108 4.23978 331.652 6.46343C332.295 9.09656 333.016 11.6934 332.799 14.5494C333.39 17.2188 333.8 19.966 334.547 22.5888C335.299 25.2167 336.368 27.7566 337.265 30.3327C338.168 32.9088 338.935 35.5575 339.978 38.0766C341.021 40.5957 342.235 43.0681 343.417 45.5302C344.595 47.9923 346.452 50.1019 347.759 52.5018C349.067 54.8965 350.638 57.115 352.06 59.4423C353.481 61.7696 354.259 64.5064 355.795 66.7663C357.33 69.0211 358.715 71.4054 360.355 73.5928C361.989 75.7749 363.929 77.7394 365.661 79.8491C367.228 82.0831 368.598 84.4518 370.169 86.6807C371.741 88.9095 373.432 91.0554 375.014 93.2739C376.602 95.4923 377.769 98.0166 379.372 100.225C380.975 102.433 383.812 103.734 385.441 105.921C387.07 108.109 387.708 111.037 389.368 113.204C391.028 115.37 393.223 117.122 394.914 119.258C396.605 121.399 397.855 123.897 399.588 126.001C401.32 128.106 402.985 130.283 404.765 132.351C406.544 134.419 408.941 135.964 410.772 137.985C412.453 140.339 414.263 142.598 415.996 144.905C417.728 147.217 419.279 149.663 421.059 151.934C422.843 154.209 425.167 156.034 426.993 158.268C428.824 160.507 430.173 163.13 432.041 165.327C433.908 167.53 435.205 170.231 437.109 172.403C439.013 174.574 441.518 176.218 443.448 178.369C445.378 180.515 447.136 182.821 449.092 184.946C451.048 187.071 452.604 189.57 454.58 191.679C456.552 193.789 459.093 195.37 461.08 197.464C463.067 199.558 464.971 201.735 466.968 203.824C468.965 205.908 471.051 207.908 473.053 209.992C475.055 212.076 477.353 213.859 479.356 215.937C481.42 217.933 483.137 220.286 485.275 222.22C487.402 224.148 489.466 226.159 491.645 228.046C493.813 229.927 496.314 231.436 498.508 233.302C500.697 235.168 502.876 237.044 505.06 238.915C507.244 240.786 509.231 242.886 511.394 244.788C513.552 246.69 515.922 248.364 518.034 250.318C520.145 252.273 522.407 254.092 524.445 256.119C526.484 258.145 527.605 261.053 529.545 263.173C531.485 265.293 534.354 266.61 536.174 268.844C537.985 271.067 539.676 274.079 541.341 276.437C539.079 274.841 536.06 273.343 533.85 271.689C531.635 270.031 529.643 268.066 527.475 266.361C525.301 264.65 522.785 263.355 520.643 261.608C518.501 259.856 516.426 258.016 514.309 256.238C512.187 254.46 510.47 252.21 508.364 250.417C506.258 248.624 503.991 247.022 501.89 245.228C499.789 243.435 497.481 241.88 495.37 240.097C493.258 238.309 491.51 236.101 489.383 234.338C487.256 232.571 485.228 230.689 483.075 228.953C480.922 227.222 478.427 225.926 476.243 224.236C474.059 222.546 472.565 219.934 470.329 218.296C468.104 216.668 465.624 215.321 463.337 213.755C460.966 212.496 458.02 212.268 455.623 211.013C453.242 209.769 450.939 208.37 448.532 207.136C446.135 205.913 444.2 203.767 441.783 202.57C439.371 201.372 437.114 199.828 434.681 198.667C432.248 197.506 429.281 197.469 426.832 196.35C424.379 195.225 422.086 193.763 419.617 192.69C417.142 191.612 414.792 190.233 412.302 189.212C409.802 188.191 407.4 186.895 404.889 185.942C402.363 184.983 399.78 184.262 397.238 183.376C394.758 182.059 391.978 181.458 389.467 180.297C386.925 179.12 384.399 177.97 381.82 176.943C379.216 175.912 376.903 174.087 374.273 173.196C371.627 172.304 368.587 172.662 365.91 171.91C363.223 171.153 360.821 169.293 358.108 168.665C355.39 168.038 352.537 167.981 349.798 167.478C347.059 166.976 344.242 166.919 341.483 166.53C338.728 166.141 335.994 165.555 333.219 165.27C330.449 164.985 327.684 164.54 324.903 164.353C322.128 164.166 319.322 164.379 316.536 164.28C313.755 164.182 310.975 164.026 308.184 164.006C305.403 163.985 302.602 163.368 299.817 163.415C297.036 163.461 294.245 163.866 291.459 163.975C288.679 164.083 285.909 164.633 283.128 164.794C280.348 164.954 277.515 164.441 274.735 164.643C271.954 164.845 269.247 165.975 266.471 166.219C263.696 166.457 260.9 166.504 258.13 166.768C255.354 167.038 252.636 167.846 249.861 168.132C247.086 168.417 244.175 167.406 241.405 167.701C238.63 168.002 235.875 168.463 233.116 168.764C230.335 169.065 227.684 170.526 224.919 170.822C222.144 171.117 219.322 170.931 216.562 171.216C213.782 171.501 210.924 170.827 208.164 171.091C205.331 171.35 202.613 172.937 199.791 173.154C196.954 173.372 194.101 173.398 191.268 173.569C188.425 173.735 185.577 173.745 182.745 173.849C179.902 173.952 177.049 173.47 174.217 173.496C171.374 173.522 168.516 174.657 165.683 174.59C162.841 174.523 160.05 173.144 157.217 172.978C154.38 172.812 151.579 172.506 148.751 172.221C145.929 171.936 143.159 171.418 140.348 171.003C137.546 170.594 134.787 170.086 131.991 169.536C129.215 168.992 126.31 169.054 123.545 168.36C120.806 167.67 117.933 167.359 115.204 166.514C112.512 165.68 109.923 164.472 107.241 163.472C104.466 163.13 101.696 163.43 98.9359 163.275C96.1554 163.114 93.4216 162.181 90.6463 162.176C87.871 162.171 85.0957 162.383 82.3204 162.497C79.5554 162.611 76.8164 163.244 74.0359 163.446C71.2814 163.643 68.4698 162.881 65.6893 163.13C63.137 162.995 60.6003 163.508 58.0688 163.498C55.5114 163.487 52.9384 163.176 50.4121 163.368C47.865 163.56 45.2505 163.601 42.7502 164.078C40.2602 164.555 37.931 165.835 35.5032 166.67C33.1377 167.484 31.0679 168.894 28.775 170.122C26.3214 171.843 23.38 172.765 20.7396 174.16C18.0992 175.554 15.6144 177.332 12.8391 178.477C10.0741 179.618 7.24174 180.883 4.40418 181.841C-2.58856 182.982 -0.415 187.398 4.54425 188.31C7.23656 188.632 10.1519 187.745 12.6004 188.538C15.1216 189.357 17.2484 191.229 19.5776 192.431C21.9068 193.634 24.2152 194.888 26.4095 196.36C28.5831 197.817 31.0783 198.889 33.1792 200.486C35.2646 202.072 36.743 204.477 38.8232 206.094C40.9034 207.712 42.7968 209.603 44.9237 211.132C47.0662 212.672 50.0438 212.869 52.2951 214.211C54.8578 215.538 56.7408 218.26 59.3916 219.343C62.0528 220.431 65.0097 220.825 67.7435 221.722C70.4721 222.619 73.5068 222.443 76.2821 223.199C79.0522 223.951 81.8068 224.682 84.6081 225.35C87.3989 226.019 90.1327 226.931 92.934 227.569C95.7352 228.206 98.3912 229.476 101.187 230.135C103.983 230.793 107.023 230.523 109.799 231.254C112.579 231.985 115.318 232.944 118.057 233.799C120.755 234.561 123.405 235.344 126.129 235.971C128.857 236.598 131.373 238.252 134.123 238.77C136.872 239.288 139.658 239.713 142.423 240.144C145.188 240.574 148.077 240.144 150.858 240.506C153.633 240.869 156.382 241.419 159.163 241.735C161.943 242.051 164.677 242.813 167.458 243.108C170.243 243.404 173.07 243.285 175.856 243.58C178.642 243.876 181.381 244.565 184.156 244.886C186.942 245.208 189.831 244.658 192.601 245.026C195.382 245.394 198.11 246.104 200.875 246.54C203.646 246.975 206.224 248.421 208.968 248.95C211.717 249.479 214.726 248.774 217.444 249.422C220.168 250.065 222.653 251.687 225.345 252.47C228.099 252.998 231.077 252.677 233.764 253.428C236.456 254.185 238.967 255.59 241.602 256.523C244.238 257.461 246.723 258.767 249.311 259.84C251.889 260.913 254.628 261.629 257.175 262.795C259.717 263.961 262.119 265.423 264.635 266.641C267.156 267.859 269.776 268.864 272.286 270.088C274.802 271.321 277.173 272.871 279.689 274.069C282.304 275.059 284.975 275.919 287.595 276.899C290.214 277.878 292.772 279.019 295.392 279.993C298.011 280.968 300.709 281.74 303.328 282.714C305.948 283.694 308.324 285.311 310.939 286.296C313.553 287.281 316.671 286.954 319.28 287.955C321.889 288.955 324.55 289.847 327.155 290.863C329.759 291.884 332.368 292.9 334.962 293.947C337.556 294.994 339.625 297.388 342.204 298.466C344.896 299.285 347.822 299.363 350.529 300.032C353.253 300.711 355.831 302.079 358.565 302.624C361.314 303.173 364.318 302.245 367.083 302.675C369.848 303.106 372.514 304.184 375.289 304.515C378.07 304.842 380.913 304.417 383.704 304.661C386.494 304.904 389.244 305.459 392.04 305.635C394.831 305.806 397.59 306.589 400.392 306.708C403.188 306.827 406.01 306.122 408.811 306.2C411.607 306.283 414.377 307.289 417.178 307.346C419.974 307.408 422.781 306.993 425.582 307.045C428.378 307.102 431.179 307.164 433.976 307.231C436.772 307.294 439.583 307.024 442.379 307.117C445.175 307.206 447.961 307.724 450.757 307.853C453.553 307.983 456.349 307.641 459.14 307.828C461.941 307.672 464.768 308.932 467.575 308.864C470.381 308.802 473.172 308.548 475.979 308.538C478.79 308.533 481.597 308.113 484.403 308.128C487.215 308.144 490.026 308.279 492.833 308.279C495.644 308.279 498.446 307.625 501.252 307.579C504.064 307.532 506.901 308.367 509.703 308.237C512.514 308.107 515.258 307.066 518.054 306.817C520.851 306.568 523.657 306.397 526.438 305.987C529.218 306.06 531.864 306.304 534.359 306.205C537.155 306.096 539.8 306.252 542.275 306.127C545.102 305.987 547.675 305.894 550.134 306.044C552.904 306.21 555.461 306.257 557.843 307.221C560.141 308.154 562.662 309.165 564.68 311.259C566.283 312.923 568.083 315.006 569.546 317.634C570.692 319.687 570.433 322.818 571.512 325.565C573.208 327.877 575.703 329.732 577.41 332.039C579.111 334.34 581.16 336.393 582.867 338.694C584.574 340.996 585.196 344.101 586.903 346.402C588.61 348.703 591.442 350.181 593.143 352.487C594.845 354.794 596.495 357.142 598.191 359.454C599.887 361.765 600.645 364.761 602.331 367.083C604.016 369.4 606.014 371.494 607.684 373.827C609.354 376.159 611.404 378.217 613.053 380.565C614.703 382.908 615.678 385.718 617.307 388.081C618.936 390.44 620.819 392.622 622.422 395.001C624.025 397.38 626.328 399.293 627.895 401.693C629.466 404.092 630.68 406.726 632.221 409.146C633.756 411.567 634.908 413.879 636.407 416.325C634.254 414.542 632.491 412.863 630.426 411.137C628.278 409.338 625.928 407.866 623.874 406.129C621.732 404.32 619.693 402.486 617.644 400.744C615.512 398.925 613.095 397.525 611.061 395.773C608.934 393.943 607.798 391.067 605.775 389.31C603.653 387.475 601.48 385.8 599.457 384.048C597.335 382.208 594.487 381.317 592.464 379.565C590.342 377.725 588.086 376.154 586.057 374.408C583.925 372.573 581.918 370.717 579.879 368.991C577.737 367.172 576.077 364.901 574.022 363.191C571.864 361.397 570.127 359.194 568.046 357.515C565.857 355.758 563.507 354.307 561.386 352.674C559.16 350.968 557.22 348.968 555.041 347.397C552.774 345.764 550.43 344.313 548.183 342.831C545.865 341.296 543.281 340.244 540.952 338.871C538.576 337.461 536.397 335.724 533.98 334.475C531.542 333.216 528.959 332.236 526.448 331.137C523.958 330.043 521.39 329.069 518.791 328.12C516.254 327.198 513.453 326.99 510.782 326.208C508.209 325.451 505.584 324.793 502.855 324.165C500.251 323.564 497.792 321.931 495.027 321.444C492.402 320.983 489.663 320.656 486.872 320.288C484.232 319.941 481.374 320.962 478.567 320.703C475.916 320.459 473.229 320.039 470.413 319.868C467.757 319.708 465.09 318.137 462.279 318.039C459.617 317.945 456.847 319.371 454.036 319.335C451.369 319.298 448.641 317.868 445.829 317.883C443.157 317.899 440.408 318.054 437.602 318.111C434.93 318.168 432.222 319.272 429.421 319.366C426.744 319.454 423.974 318.645 421.173 318.77C418.496 318.889 415.767 319.241 412.966 319.386C410.284 319.526 407.525 319.366 404.734 319.537C402.052 319.697 399.318 319.708 396.522 319.894C393.715 319.957 390.997 320.853 388.341 321.304C385.613 321.766 382.853 322.165 380.238 322.942C377.608 323.72 375.331 325.529 372.768 326.529C370.226 327.519 367.747 328.633 365.226 329.738C362.725 330.831 359.888 331.189 357.367 332.303C354.871 333.407 352.252 333.988 349.694 335.014C346.929 335.527 344.455 337.212 341.685 337.606C338.904 338 336.129 338.611 333.343 338.891C330.552 339.171 327.647 338.052 324.846 338.223C322.045 338.394 319.29 339.467 316.489 339.534C313.688 339.601 310.876 338.896 308.075 338.865C305.274 338.834 302.447 339.56 299.645 339.441C296.844 339.322 294.105 338.202 291.309 337.995C288.513 337.787 285.665 338.238 282.874 337.953C280.083 337.668 277.391 336.611 274.61 336.253C271.83 335.895 268.883 336.694 266.113 336.269C263.343 335.843 260.641 334.947 257.881 334.46C255.048 334.04 252.398 332.905 249.664 332.231C246.894 331.552 243.833 331.883 241.156 330.987C238.464 330.085 235.922 328.68 233.302 327.602C230.683 326.519 228.463 324.549 225.895 323.331C223.337 322.113 220.505 321.455 217.989 320.138C215.478 318.827 212.827 317.754 210.343 316.385C207.858 315.017 205.549 313.332 203.075 311.948C200.6 310.564 197.789 309.787 195.304 308.424C192.814 307.06 191.014 304.407 188.498 303.106C185.972 301.799 182.838 301.748 180.276 300.55C177.703 299.348 175.701 296.829 173.07 295.776C170.44 294.724 167.639 293.983 164.936 293.117C162.244 292.257 159.375 291.889 156.595 291.256C153.856 290.634 151.018 290.396 148.176 290.038C145.504 289.888 142.879 290.552 140.202 290.748C137.526 290.945 134.839 291.174 132.183 291.334C129.49 291.495 126.793 290.769 124.142 290.495C121.522 290.225 119.198 289.085 116.641 288.007C115.878 287.815 115.583 289.276 114.67 289.686C116.475 291.946 117.326 294.667 119.499 296.409C121.714 298.181 124.645 298.99 126.99 300.55C129.35 302.121 131.7 303.712 133.946 305.407C136.193 307.102 138.522 308.698 140.4 310.855C142.921 312.171 145.411 313.519 147.688 315.193C149.965 316.867 151.553 319.459 153.716 321.284C155.884 323.113 157.944 325.078 160.133 326.856C162.338 328.649 164.584 330.448 166.944 331.982C169.304 333.516 172.344 333.988 175 335.061C177.132 336.984 178.673 339.767 180.971 341.322C183.326 342.914 186.449 343.152 188.955 344.406C191.481 345.671 193.706 347.537 196.352 348.512C198.992 349.481 201.508 351.02 204.242 351.751C206.955 352.477 209.824 352.809 212.599 353.353C215.359 353.892 218.311 353.379 221.112 353.788C223.898 354.192 226.538 355.81 229.344 356.136C232.151 356.463 234.999 356.432 237.795 356.727C240.617 357.023 243.454 357.028 246.24 357.339C249.062 357.515 251.806 358.37 254.618 358.681C257.424 358.992 260.226 359.2 263.027 359.614C265.818 360.024 268.78 359.407 271.571 359.884C274.351 360.361 277.002 361.605 279.788 362.118C282.563 362.631 285.312 363.294 288.098 363.808C290.878 364.321 293.783 364.119 296.574 364.606C299.36 365.088 302.208 365.217 305.004 365.637C307.707 366.207 310.098 368.219 312.785 368.856C315.472 369.499 318.232 369.784 320.898 370.489C323.57 371.199 326.454 371.116 329.11 371.883C331.761 372.65 334.075 374.537 336.715 375.356C339.35 376.175 342.276 376.082 344.901 376.942C347.526 377.803 350.172 378.606 352.786 379.503C355.395 380.399 357.616 382.4 360.22 383.333C362.819 384.261 365.739 384.302 368.333 385.256C370.922 386.21 373.479 387.252 376.068 388.221C378.651 389.19 381.281 390.046 383.859 391.03C386.437 392.01 388.741 393.726 391.319 394.711C393.897 395.695 396.532 396.535 399.116 397.52C401.694 398.505 404.184 399.728 406.772 400.703C409.356 401.677 412.473 401.226 415.062 402.185C417.65 403.144 419.974 404.823 422.568 405.767C425.167 406.705 427.859 407.368 430.464 408.281C433.068 409.193 435.75 409.872 438.369 410.748C440.989 411.624 443.246 413.609 445.876 414.444C448.506 415.278 451.374 415.361 454.025 416.149C456.671 416.937 459.208 418.119 461.869 418.849C464.53 419.58 467.482 419.197 470.158 419.87C472.835 420.544 475.341 421.882 478.038 422.483C480.808 423.069 483.589 423.603 486.364 424.199C489.129 424.795 491.795 425.868 494.565 426.469C497.33 427.07 500.075 427.785 502.84 428.397C505.604 429.004 508.338 429.76 511.108 430.372C513.873 430.978 516.737 431.149 519.507 431.756C522.272 432.362 525.12 432.606 527.89 433.207C530.66 433.808 533.513 434.021 536.283 434.617C539.053 435.213 541.678 436.483 544.454 437.069C547.229 437.654 550.17 437.416 552.946 437.986C555.721 438.562 558.195 440.609 560.971 441.169C563.751 441.729 566.656 441.651 569.437 442.195C572.217 442.739 575.133 442.589 577.913 443.113C580.699 443.636 583.484 444.139 586.27 444.642C589.061 445.139 591.722 446.352 594.518 446.824C597.314 447.301 600.048 448.161 602.844 448.607C605.645 449.053 608.478 449.307 611.279 449.721C614.08 450.136 616.918 450.348 619.724 450.732C622.531 451.116 625.405 450.976 628.216 451.323C631.028 451.67 633.819 452.157 636.635 452.468C639.452 452.774 642.29 452.857 645.107 453.122C647.929 453.386 650.875 453.37 653.702 453.588C656.441 454.76 658.921 456.677 661.349 458.222C663.828 459.803 665.94 461.84 668.144 463.747C670.349 465.655 672.445 467.656 674.421 469.822C676.382 471.973 678.151 474.28 679.92 476.618C681.678 478.94 684.158 480.785 685.777 483.226C687.395 485.663 688.417 488.493 689.942 490.986C691.472 493.489 692.868 496.065 694.346 498.559C695.851 501.098 696.997 503.846 698.491 506.308C700.084 508.547 702.133 510.486 703.736 512.72C705.339 514.948 707.133 517.048 708.742 519.276C710.35 521.505 711.252 524.247 712.86 526.476C714.469 528.705 716.964 530.296 718.572 532.53C720.18 534.759 721.093 537.491 722.691 539.725C724.289 541.959 725.783 544.27 727.375 546.515C728.963 548.759 731.224 550.532 732.796 552.787C734.368 555.041 735.789 557.405 737.34 559.675C738.891 561.946 739.996 564.517 741.521 566.802C743.052 569.088 744.976 571.11 746.475 573.416C747.975 575.723 749.199 578.201 750.667 580.528C752.13 582.855 753.178 585.431 754.604 587.785C756.031 590.138 757.935 592.123 759.315 594.497C756.923 592.952 754.952 590.895 752.592 589.298C750.231 587.702 748.001 585.944 745.666 584.312C743.332 582.679 740.23 582.135 737.911 580.481C735.592 578.823 733.585 576.734 731.276 575.07C728.962 573.406 726.265 572.276 723.951 570.617C721.638 568.953 719.288 567.347 716.964 565.709C714.635 564.066 712.793 561.733 710.448 560.121C708.098 558.509 706.018 556.488 703.642 554.922C701.261 553.357 698.087 553.036 695.669 551.532C693.252 550.024 691.649 547.173 689.185 545.743C686.721 544.312 683.956 543.389 681.44 542.047C678.929 540.71 676.081 540.041 673.508 538.807C670.945 537.579 668.637 535.775 666.007 534.666C663.393 533.562 660.845 532.198 658.153 531.224C655.492 530.26 652.628 529.726 649.879 528.907C647.14 528.472 644.334 528.306 641.574 527.943C638.819 527.58 636.101 526.86 633.336 526.559C630.576 526.258 627.749 526.554 624.979 526.305C622.214 526.061 619.434 525.994 616.658 525.792C613.888 525.59 611.097 525.776 608.317 525.61C605.542 525.445 602.766 525.382 599.991 525.242C597.21 525.103 594.44 524.9 591.665 524.776C588.885 524.652 586.104 524.486 583.329 524.366C580.548 524.247 577.747 523.869 574.977 523.755C571.984 523.128 569.172 522.594 566.412 522.858C563.507 523.138 560.571 523.433 557.853 524.413C555.161 525.382 552.474 526.606 549.901 527.969C547.359 529.311 545.253 531.499 542.757 532.95C540.241 534.412 537.824 536.314 535.282 537.605C532.59 538.206 529.649 538.076 527.065 538.916C524.456 539.766 521.831 540.59 519.315 541.643C516.794 542.7 514.366 543.985 511.918 545.209C509.48 546.427 507.28 548.106 504.894 549.454C502.518 550.796 500.023 551.931 497.688 553.367C495.364 554.793 493.201 556.482 490.898 557.965C488.605 559.442 485.923 560.334 483.63 561.826C481.343 563.319 479.102 564.89 476.798 566.362C474.495 567.839 472.114 569.176 469.78 570.597C467.44 572.022 465.199 573.577 462.818 574.909C460.432 576.246 458.046 577.558 455.597 578.771C453.149 579.978 451.182 581.912 448.656 582.959C446.799 585.001 444.402 586.245 442.156 587.624C439.879 589.023 437.181 589.656 434.738 590.765C432.295 591.874 430.272 593.828 427.896 595.036C425.51 596.254 423.258 597.555 421.188 599.281C418.693 600.515 415.783 600.753 413.267 601.5C410.647 602.282 408.012 602.557 405.372 602.91C402.695 603.267 400.07 603.62 397.378 603.64C394.696 603.661 392.035 603.454 389.342 603.252C386.666 603.049 383.994 602.837 381.307 602.516C378.641 602.199 375.881 602.583 373.204 602.256C370.532 601.93 367.985 600.375 365.309 600.131C362.627 599.888 359.919 600.09 357.232 600.038C354.643 599.463 351.956 599.644 349.513 598.903C346.992 598.141 344.875 596.264 342.447 595.42C339.978 594.559 337.581 593.559 335.149 592.698C332.695 591.833 330.018 591.631 327.533 590.863C325.069 590.102 322.574 589.386 320.017 588.816C317.527 588.261 314.99 587.551 312.355 587.261C309.849 586.986 307.183 586.603 304.49 586.644C301.497 586.986 298.784 587.38 296.398 587.639C293.104 587.997 290.453 588.795 288.383 589.137C283.481 589.951 282.319 590.791 285.074 593.082C286.396 594.181 288.238 596.244 291.506 598.063C293.509 599.177 296.434 599.364 299.199 600.821C301.772 601.831 303.769 604.164 306.327 605.206C308.884 606.248 311.971 606.03 314.513 607.108C317.055 608.186 319.591 609.306 322.118 610.425C324.644 611.545 326.994 613.064 329.499 614.225C332.005 615.391 334.303 616.982 336.788 618.19C339.267 619.398 341.685 620.714 344.144 621.974H790.497C789.158 620.445 787.592 619.035 786.787 617.278L786.808 617.304Z" fill="#A480EF"/>
</g>
<defs>
<clipPath id="clip0_33_1523">
<rect width="988" height="622" fill="white"/>
</clipPath>
</defs>
</svg>
