<svg width="246" height="41" viewBox="0 0 246 41" fill="none" xmlns="http://www.w3.org/2000/svg">
<path d="M26.4022 9.016C25.1542 9.136 24.2902 9.388 23.8102 9.772C23.3302 10.156 23.0902 10.792 23.0902 11.68V30.832C23.0902 31.72 23.3302 32.356 23.8102 32.74C24.2902 33.124 25.1542 33.376 26.4022 33.496V34H17.5462V33.496C18.7942 33.376 19.6582 33.124 20.1382 32.74C20.6182 32.356 20.8582 31.72 20.8582 30.832V21.4H7.35816V30.832C7.35816 31.72 7.59816 32.356 8.07816 32.74C8.55816 33.124 9.42216 33.376 10.6702 33.496V34H1.81416V33.496C3.06216 33.376 3.92616 33.124 4.40616 32.74C4.88616 32.356 5.12616 31.72 5.12616 30.832V11.68C5.12616 10.792 4.88616 10.156 4.40616 9.772C3.92616 9.388 3.06216 9.136 1.81416 9.016V8.512H10.6702V9.016C9.42216 9.136 8.55816 9.388 8.07816 9.772C7.59816 10.156 7.35816 10.792 7.35816 11.68V20.392H20.8582V11.68C20.8582 10.792 20.6182 10.156 20.1382 9.772C19.6582 9.388 18.7942 9.136 17.5462 9.016V8.512H26.4022V9.016ZM47.8129 34H29.2009V33.496C30.4489 33.376 31.3129 33.124 31.7929 32.74C32.2729 32.356 32.5129 31.72 32.5129 30.832V11.68C32.5129 10.792 32.2729 10.156 31.7929 9.772C31.3129 9.388 30.4489 9.136 29.2009 9.016V8.512H45.2209C45.7009 8.512 46.0609 8.476 46.3009 8.404C46.5409 8.308 46.6969 8.164 46.7689 7.972H47.2729L48.3529 14.92H47.8489C47.4409 13 46.8169 11.62 45.9769 10.78C45.1369 9.94 43.9609 9.52 42.4489 9.52H34.7449V20.428H40.0369C41.0689 20.428 41.7769 20.164 42.1609 19.636C42.5689 19.084 42.7249 18.148 42.6289 16.828H43.1329L44.3209 25H43.8169C43.5049 23.728 43.0729 22.816 42.5209 22.264C41.9929 21.712 41.2849 21.436 40.3969 21.436H34.7449V30.472C34.7449 31.384 34.9009 32.044 35.2129 32.452C35.5249 32.836 36.0529 33.028 36.7969 33.028H43.2049C44.5489 33.028 45.6289 32.584 46.4449 31.696C47.2849 30.808 47.9089 29.428 48.3169 27.556H48.8209L47.8129 34ZM70.4695 27.556L69.4975 34H51.1735V33.496C52.4215 33.376 53.2855 33.124 53.7655 32.74C54.2455 32.356 54.4855 31.72 54.4855 30.832V11.68C54.4855 10.792 54.2455 10.156 53.7655 9.772C53.2855 9.388 52.4215 9.136 51.1735 9.016V8.512H60.0295V9.016C58.7815 9.136 57.9175 9.388 57.4375 9.772C56.9575 10.156 56.7175 10.792 56.7175 11.68V30.472C56.7175 31.384 56.8735 32.044 57.1855 32.452C57.4975 32.836 58.0255 33.028 58.7695 33.028H64.8535C66.1975 33.028 67.2775 32.584 68.0935 31.696C68.9335 30.784 69.5575 29.404 69.9655 27.556H70.4695ZM94.2996 30.832C94.2996 31.72 94.5396 32.356 95.0196 32.74C95.4996 33.124 96.3636 33.376 97.6116 33.496V34H88.7556V33.496C90.0036 33.376 90.8676 33.124 91.3476 32.74C91.8276 32.356 92.0676 31.72 92.0676 30.832V11.68C92.0676 10.792 91.8276 10.156 91.3476 9.772C90.8676 9.388 90.0036 9.136 88.7556 9.016V8.512H97.6116V9.016C96.3636 9.136 95.4996 9.388 95.0196 9.772C94.5396 10.156 94.2996 10.792 94.2996 11.68V30.832ZM136.399 14.992C135.775 13.024 134.791 11.536 133.447 10.528C132.127 9.496 130.483 8.98 128.515 8.98C126.859 8.98 125.371 9.472 124.051 10.456C122.731 11.44 121.699 12.82 120.955 14.596C120.211 16.348 119.839 18.364 119.839 20.644C119.839 22.972 120.271 25.072 121.135 26.944C121.999 28.816 123.187 30.292 124.699 31.372C126.211 32.428 127.915 32.956 129.811 32.956C131.635 32.956 133.207 32.392 134.527 31.264C135.871 30.112 136.807 28.552 137.335 26.584L137.875 26.692C137.635 28.3 137.071 29.704 136.183 30.904C135.319 32.08 134.227 32.992 132.907 33.64C131.611 34.264 130.219 34.576 128.731 34.576C126.523 34.576 124.543 34.036 122.791 32.956C121.063 31.852 119.719 30.34 118.759 28.42C117.799 26.476 117.319 24.292 117.319 21.868C117.319 19.18 117.799 16.78 118.759 14.668C119.743 12.556 121.087 10.912 122.791 9.736C124.519 8.56 126.475 7.972 128.659 7.972C129.451 7.972 130.159 8.044 130.783 8.188C131.431 8.332 132.127 8.536 132.871 8.8C133.615 9.064 134.107 9.196 134.347 9.196C134.635 9.196 134.851 9.112 134.995 8.944C135.139 8.752 135.247 8.428 135.319 7.972H135.823L136.903 14.992H136.399ZM152.607 34.54C150.327 34.54 148.311 34 146.559 32.92C144.807 31.816 143.439 30.304 142.455 28.384C141.495 26.44 141.015 24.244 141.015 21.796C141.015 19.108 141.507 16.72 142.491 14.632C143.499 12.52 144.891 10.888 146.667 9.736C148.467 8.56 150.507 7.972 152.787 7.972C155.067 7.972 157.083 8.524 158.835 9.628C160.587 10.708 161.943 12.22 162.903 14.164C163.863 16.084 164.343 18.268 164.343 20.716C164.343 23.404 163.839 25.792 162.831 27.88C161.847 29.968 160.467 31.6 158.691 32.776C156.915 33.952 154.887 34.54 152.607 34.54ZM153.255 33.532C154.959 33.484 156.459 32.968 157.755 31.984C159.051 30.976 160.047 29.608 160.743 27.88C161.463 26.128 161.823 24.124 161.823 21.868C161.823 19.348 161.403 17.104 160.563 15.136C159.747 13.168 158.607 11.644 157.143 10.564C155.679 9.484 154.011 8.956 152.139 8.98C150.435 9.004 148.923 9.508 147.603 10.492C146.307 11.476 145.299 12.844 144.579 14.596C143.883 16.324 143.535 18.304 143.535 20.536C143.535 23.032 143.943 25.276 144.759 27.268C145.599 29.26 146.751 30.808 148.215 31.912C149.703 33.016 151.383 33.556 153.255 33.532ZM207.645 8.98C206.397 9.1 205.533 9.352 205.053 9.736C204.573 10.12 204.333 10.756 204.333 11.644V34H203.433L188.349 11.968V30.832C188.349 31.744 188.577 32.392 189.033 32.776C189.489 33.16 190.329 33.4 191.553 33.496V34H184.029V33.496C185.277 33.376 186.141 33.124 186.621 32.74C187.101 32.356 187.341 31.72 187.341 30.832V11.644C187.341 10.708 187.101 10.048 186.621 9.664C186.141 9.256 185.301 9.04 184.101 9.016V8.512H188.709L203.325 30.004V11.644C203.325 10.732 203.097 10.084 202.641 9.7C202.185 9.316 201.345 9.076 200.121 8.98V8.476H207.645V8.98ZM215.905 30.832C215.905 31.72 216.145 32.356 216.625 32.74C217.105 33.124 217.969 33.376 219.217 33.496V34H210.361V33.496C211.609 33.376 212.473 33.124 212.953 32.74C213.433 32.356 213.673 31.72 213.673 30.832V11.68C213.673 10.792 213.433 10.156 212.953 9.772C212.473 9.388 211.609 9.136 210.361 9.016V8.512H219.217V9.016C217.969 9.136 217.105 9.388 216.625 9.772C216.145 10.156 215.905 10.792 215.905 11.68V30.832ZM241.596 29.86C242.148 31.228 242.688 32.176 243.216 32.704C243.768 33.232 244.488 33.496 245.376 33.496V34H235.98V33.496C237.276 33.496 238.212 33.364 238.788 33.1C239.388 32.836 239.688 32.404 239.688 31.804C239.688 31.396 239.556 30.856 239.292 30.184L237.42 25.396H226.728L224.856 30.184C224.592 30.856 224.46 31.396 224.46 31.804C224.46 32.404 224.736 32.836 225.288 33.1C225.84 33.364 226.74 33.496 227.988 33.496V34H220.212V33.496C221.076 33.496 221.772 33.232 222.3 32.704C222.828 32.152 223.368 31.192 223.92 29.824L232.488 7.972H232.992L241.596 29.86ZM227.124 24.388H237.024L232.056 11.68L227.124 24.388Z" fill="#E6E3D6"/>
<circle cx="108.5" cy="21.5" r="3.5" fill="#E6E3D6"/>
<circle cx="79.5" cy="21.5" r="3.5" fill="#E6E3D6"/>
<circle cx="175.5" cy="21.5" r="3.5" fill="#E6E3D6"/>
</svg>
