<svg width="246" height="104" viewBox="0 0 246 104" fill="none" xmlns="http://www.w3.org/2000/svg">
<path d="M26.4022 72.016C25.1542 72.136 24.2902 72.388 23.8102 72.772C23.3302 73.156 23.0902 73.792 23.0902 74.68V93.832C23.0902 94.72 23.3302 95.356 23.8102 95.74C24.2902 96.124 25.1542 96.376 26.4022 96.496V97H17.5462V96.496C18.7942 96.376 19.6582 96.124 20.1382 95.74C20.6182 95.356 20.8582 94.72 20.8582 93.832V84.4H7.35816V93.832C7.35816 94.72 7.59816 95.356 8.07816 95.74C8.55816 96.124 9.42216 96.376 10.6702 96.496V97H1.81416V96.496C3.06216 96.376 3.92616 96.124 4.40616 95.74C4.88616 95.356 5.12616 94.72 5.12616 93.832V74.68C5.12616 73.792 4.88616 73.156 4.40616 72.772C3.92616 72.388 3.06216 72.136 1.81416 72.016V71.512H10.6702V72.016C9.42216 72.136 8.55816 72.388 8.07816 72.772C7.59816 73.156 7.35816 73.792 7.35816 74.68V83.392H20.8582V74.68C20.8582 73.792 20.6182 73.156 20.1382 72.772C19.6582 72.388 18.7942 72.136 17.5462 72.016V71.512H26.4022V72.016ZM47.8129 97H29.2009V96.496C30.4489 96.376 31.3129 96.124 31.7929 95.74C32.2729 95.356 32.5129 94.72 32.5129 93.832V74.68C32.5129 73.792 32.2729 73.156 31.7929 72.772C31.3129 72.388 30.4489 72.136 29.2009 72.016V71.512H45.2209C45.7009 71.512 46.0609 71.476 46.3009 71.404C46.5409 71.308 46.6969 71.164 46.7689 70.972H47.2729L48.3529 77.92H47.8489C47.4409 76 46.8169 74.62 45.9769 73.78C45.1369 72.94 43.9609 72.52 42.4489 72.52H34.7449V83.428H40.0369C41.0689 83.428 41.7769 83.164 42.1609 82.636C42.5689 82.084 42.7249 81.148 42.6289 79.828H43.1329L44.3209 88H43.8169C43.5049 86.728 43.0729 85.816 42.5209 85.264C41.9929 84.712 41.2849 84.436 40.3969 84.436H34.7449V93.472C34.7449 94.384 34.9009 95.044 35.2129 95.452C35.5249 95.836 36.0529 96.028 36.7969 96.028H43.2049C44.5489 96.028 45.6289 95.584 46.4449 94.696C47.2849 93.808 47.9089 92.428 48.3169 90.556H48.8209L47.8129 97ZM70.4695 90.556L69.4975 97H51.1735V96.496C52.4215 96.376 53.2855 96.124 53.7655 95.74C54.2455 95.356 54.4855 94.72 54.4855 93.832V74.68C54.4855 73.792 54.2455 73.156 53.7655 72.772C53.2855 72.388 52.4215 72.136 51.1735 72.016V71.512H60.0295V72.016C58.7815 72.136 57.9175 72.388 57.4375 72.772C56.9575 73.156 56.7175 73.792 56.7175 74.68V93.472C56.7175 94.384 56.8735 95.044 57.1855 95.452C57.4975 95.836 58.0255 96.028 58.7695 96.028H64.8535C66.1975 96.028 67.2775 95.584 68.0935 94.696C68.9335 93.784 69.5575 92.404 69.9655 90.556H70.4695ZM94.2996 93.832C94.2996 94.72 94.5396 95.356 95.0196 95.74C95.4996 96.124 96.3636 96.376 97.6116 96.496V97H88.7556V96.496C90.0036 96.376 90.8676 96.124 91.3476 95.74C91.8276 95.356 92.0676 94.72 92.0676 93.832V74.68C92.0676 73.792 91.8276 73.156 91.3476 72.772C90.8676 72.388 90.0036 72.136 88.7556 72.016V71.512H97.6116V72.016C96.3636 72.136 95.4996 72.388 95.0196 72.772C94.5396 73.156 94.2996 73.792 94.2996 74.68V93.832ZM136.399 77.992C135.775 76.024 134.791 74.536 133.447 73.528C132.127 72.496 130.483 71.98 128.515 71.98C126.859 71.98 125.371 72.472 124.051 73.456C122.731 74.44 121.699 75.82 120.955 77.596C120.211 79.348 119.839 81.364 119.839 83.644C119.839 85.972 120.271 88.072 121.135 89.944C121.999 91.816 123.187 93.292 124.699 94.372C126.211 95.428 127.915 95.956 129.811 95.956C131.635 95.956 133.207 95.392 134.527 94.264C135.871 93.112 136.807 91.552 137.335 89.584L137.875 89.692C137.635 91.3 137.071 92.704 136.183 93.904C135.319 95.08 134.227 95.992 132.907 96.64C131.611 97.264 130.219 97.576 128.731 97.576C126.523 97.576 124.543 97.036 122.791 95.956C121.063 94.852 119.719 93.34 118.759 91.42C117.799 89.476 117.319 87.292 117.319 84.868C117.319 82.18 117.799 79.78 118.759 77.668C119.743 75.556 121.087 73.912 122.791 72.736C124.519 71.56 126.475 70.972 128.659 70.972C129.451 70.972 130.159 71.044 130.783 71.188C131.431 71.332 132.127 71.536 132.871 71.8C133.615 72.064 134.107 72.196 134.347 72.196C134.635 72.196 134.851 72.112 134.995 71.944C135.139 71.752 135.247 71.428 135.319 70.972H135.823L136.903 77.992H136.399ZM152.607 97.54C150.327 97.54 148.311 97 146.559 95.92C144.807 94.816 143.439 93.304 142.455 91.384C141.495 89.44 141.015 87.244 141.015 84.796C141.015 82.108 141.507 79.72 142.491 77.632C143.499 75.52 144.891 73.888 146.667 72.736C148.467 71.56 150.507 70.972 152.787 70.972C155.067 70.972 157.083 71.524 158.835 72.628C160.587 73.708 161.943 75.22 162.903 77.164C163.863 79.084 164.343 81.268 164.343 83.716C164.343 86.404 163.839 88.792 162.831 90.88C161.847 92.968 160.467 94.6 158.691 95.776C156.915 96.952 154.887 97.54 152.607 97.54ZM153.255 96.532C154.959 96.484 156.459 95.968 157.755 94.984C159.051 93.976 160.047 92.608 160.743 90.88C161.463 89.128 161.823 87.124 161.823 84.868C161.823 82.348 161.403 80.104 160.563 78.136C159.747 76.168 158.607 74.644 157.143 73.564C155.679 72.484 154.011 71.956 152.139 71.98C150.435 72.004 148.923 72.508 147.603 73.492C146.307 74.476 145.299 75.844 144.579 77.596C143.883 79.324 143.535 81.304 143.535 83.536C143.535 86.032 143.943 88.276 144.759 90.268C145.599 92.26 146.751 93.808 148.215 94.912C149.703 96.016 151.383 96.556 153.255 96.532ZM207.645 71.98C206.397 72.1 205.533 72.352 205.053 72.736C204.573 73.12 204.333 73.756 204.333 74.644V97H203.433L188.349 74.968V93.832C188.349 94.744 188.577 95.392 189.033 95.776C189.489 96.16 190.329 96.4 191.553 96.496V97H184.029V96.496C185.277 96.376 186.141 96.124 186.621 95.74C187.101 95.356 187.341 94.72 187.341 93.832V74.644C187.341 73.708 187.101 73.048 186.621 72.664C186.141 72.256 185.301 72.04 184.101 72.016V71.512H188.709L203.325 93.004V74.644C203.325 73.732 203.097 73.084 202.641 72.7C202.185 72.316 201.345 72.076 200.121 71.98V71.476H207.645V71.98ZM215.905 93.832C215.905 94.72 216.145 95.356 216.625 95.74C217.105 96.124 217.969 96.376 219.217 96.496V97H210.361V96.496C211.609 96.376 212.473 96.124 212.953 95.74C213.433 95.356 213.673 94.72 213.673 93.832V74.68C213.673 73.792 213.433 73.156 212.953 72.772C212.473 72.388 211.609 72.136 210.361 72.016V71.512H219.217V72.016C217.969 72.136 217.105 72.388 216.625 72.772C216.145 73.156 215.905 73.792 215.905 74.68V93.832ZM241.596 92.86C242.148 94.228 242.688 95.176 243.216 95.704C243.768 96.232 244.488 96.496 245.376 96.496V97H235.98V96.496C237.276 96.496 238.212 96.364 238.788 96.1C239.388 95.836 239.688 95.404 239.688 94.804C239.688 94.396 239.556 93.856 239.292 93.184L237.42 88.396H226.728L224.856 93.184C224.592 93.856 224.46 94.396 224.46 94.804C224.46 95.404 224.736 95.836 225.288 96.1C225.84 96.364 226.74 96.496 227.988 96.496V97H220.212V96.496C221.076 96.496 221.772 96.232 222.3 95.704C222.828 95.152 223.368 94.192 223.92 92.824L232.488 70.972H232.992L241.596 92.86ZM227.124 87.388H237.024L232.056 74.68L227.124 87.388Z" fill="#E6E3D6"/>
<circle cx="108.5" cy="84.5" r="3.5" fill="#E6E3D6"/>
<circle cx="79.5" cy="84.5" r="3.5" fill="#E6E3D6"/>
<circle cx="175.5" cy="84.5" r="3.5" fill="#E6E3D6"/>
<path d="M151.308 0H94.692C93.7611 0 93 0.761086 93 1.692V58.308C93 59.2452 93.7611 60 94.692 60H151.308C152.245 60 153 59.2389 153 58.308V1.692C153 0.754796 152.239 0 151.308 0ZM94.7926 13.6555C94.7926 7.11395 100.114 1.79264 106.656 1.79264H121.846C122.324 1.79264 122.777 2.00021 123.085 2.35245C124.437 3.90607 124.903 5.35905 124.557 6.92525C123.865 10.0577 120.097 12.6806 120.116 16.0457C120.116 17.3792 120.732 18.5931 122.148 20.1027C122.299 20.2663 122.318 20.5053 122.198 20.6814C118.6 17.2282 112.681 21.2412 103.536 12.3787C103.272 12.1271 102.856 12.1271 102.598 12.3787L102.529 12.4478L102.598 12.517C111.7 21.6186 121.707 23.9711 121.707 28.7955C121.707 29.9528 120.097 31.1542 120.097 32.7833C120.097 34.1482 121.06 35.054 121.99 35.922L122.123 36.0478C122.211 36.1296 122.261 36.2491 122.267 36.3749C122.267 36.4629 122.242 36.551 122.198 36.6265C121.512 36.0289 106.159 32.6135 95.3273 22.1029C94.9876 21.7759 94.7926 21.3167 94.7926 20.8387V13.6492V13.6555ZM121.009 58.2074H106.656C100.114 58.2074 94.7926 52.886 94.7926 46.3445V23.6125C94.7926 23.4175 94.9184 23.298 95.0379 23.2477C95.082 23.2288 95.1386 23.2163 95.1952 23.2163C95.2833 23.2163 95.3839 23.2477 95.472 23.3295C107.498 35.0477 121.707 42.5328 121.707 45.5457C121.707 47.483 118.518 48.6969 118.518 51.9237C118.518 54.5026 122.506 54.3956 122.506 56.7103C122.506 57.5343 121.833 58.2074 121.009 58.2074ZM139.351 58.2074H124.997C124.173 58.2074 123.5 57.5343 123.5 56.7103C123.5 51.4771 148.943 27.701 150.591 26.0656C150.666 25.9901 150.761 25.9587 150.843 25.9587C150.893 25.9587 150.943 25.9713 150.987 25.9901C151.094 26.0342 151.207 26.1474 151.207 26.3235V46.3445C151.207 52.886 145.886 58.2074 139.344 58.2074H139.351ZM151.214 22.4552C151.214 23.4301 150.817 24.3799 150.125 25.0655C130.482 44.4701 128.117 40.3816 123.815 44.6084C123.771 44.5393 123.745 44.4575 123.752 44.3694C123.752 44.2499 123.802 44.143 123.89 44.0612C124.645 43.3442 125.903 41.9667 125.903 40.7716C125.903 39.1173 123.909 38.3436 123.909 36.3497C123.909 33.6702 135.64 25.097 144.213 16.5237L144.282 16.4546L144.213 16.3854C144.081 16.2533 143.911 16.1904 143.741 16.1904C143.571 16.1904 143.402 16.2533 143.276 16.3791C134.055 25.3926 127.041 25.1473 123.418 28.6634C123.305 28.4873 123.318 28.2482 123.462 28.0847C126.142 25.097 124.305 23.1785 124.305 21.6375C124.305 19.2159 128.199 15.8193 128.293 11.2716C128.35 8.62984 126.746 5.23954 124.003 2.1952C123.94 2.12601 123.921 2.03166 123.966 1.9436C124.003 1.85554 124.085 1.80522 124.179 1.80522H139.357C145.899 1.80522 151.22 7.12653 151.22 13.6681V22.4678L151.214 22.4552Z" fill="#E6E3D6"/>
</svg>
