<svg width="60" height="60" viewBox="0 0 60 60" fill="none" xmlns="http://www.w3.org/2000/svg">
<path d="M58.308 0H1.692C0.761086 0 0 0.761086 0 1.692V58.308C0 59.2452 0.761086 60 1.692 60H58.308C59.2452 60 60 59.2389 60 58.308V1.692C60 0.754796 59.2389 0 58.308 0ZM1.79264 13.6555C1.79264 7.11395 7.11395 1.79264 13.6555 1.79264H28.8458C29.3238 1.79264 29.7767 2.00021 30.0849 2.35245C31.4373 3.90607 31.9027 5.35905 31.5568 6.92525C30.8649 10.0577 27.0972 12.6806 27.116 16.0457C27.116 17.3792 27.7325 18.5931 29.1477 20.1027C29.2987 20.2663 29.3175 20.5053 29.198 20.6814C25.6002 17.2282 19.6813 21.2412 10.5357 12.3787C10.2715 12.1271 9.85638 12.1271 9.59849 12.3787L9.5293 12.4478L9.59849 12.517C18.7001 21.6186 28.7074 23.9711 28.7074 28.7955C28.7074 29.9528 27.0972 31.1542 27.0972 32.7833C27.0972 34.1482 28.0595 35.054 28.9905 35.922L29.1225 36.0478C29.2106 36.1296 29.2609 36.2491 29.2672 36.3749C29.2672 36.4629 29.2421 36.551 29.198 36.6265C28.5124 36.0289 13.1586 32.6135 2.32729 22.1029C1.98763 21.7759 1.79264 21.3167 1.79264 20.8387V13.6492V13.6555ZM28.0092 58.2074H13.6555C7.11395 58.2074 1.79264 52.886 1.79264 46.3445V23.6125C1.79264 23.4175 1.91844 23.298 2.03795 23.2477C2.08198 23.2288 2.13859 23.2163 2.1952 23.2163C2.28326 23.2163 2.3839 23.2477 2.47196 23.3295C14.4984 35.0477 28.7074 42.5328 28.7074 45.5457C28.7074 47.483 25.5184 48.6969 25.5184 51.9237C25.5184 54.5026 29.5062 54.3956 29.5062 56.7103C29.5062 57.5343 28.8332 58.2074 28.0092 58.2074ZM46.3508 58.2074H31.9971C31.1731 58.2074 30.5001 57.5343 30.5001 56.7103C30.5001 51.4771 55.943 27.701 57.5909 26.0656C57.6664 25.9901 57.7608 25.9587 57.8425 25.9587C57.8929 25.9587 57.9432 25.9713 57.9872 25.9901C58.0941 26.0342 58.2074 26.1474 58.2074 26.3235V46.3445C58.2074 52.886 52.886 58.2074 46.3445 58.2074H46.3508ZM58.2136 22.4552C58.2136 23.4301 57.8174 24.3799 57.1255 25.0655C37.4819 44.4701 35.1169 40.3816 30.8146 44.6084C30.7705 44.5393 30.7454 44.4575 30.7516 44.3694C30.7516 44.2499 30.802 44.143 30.89 44.0612C31.6448 43.3442 32.9028 41.9667 32.9028 40.7716C32.9028 39.1173 30.9089 38.3436 30.9089 36.3497C30.9089 33.6702 42.6397 25.097 51.2129 16.5237L51.2821 16.4546L51.2129 16.3854C51.0808 16.2533 50.911 16.1904 50.7412 16.1904C50.5713 16.1904 50.4015 16.2533 50.2757 16.3791C41.0546 25.3926 34.0413 25.1473 30.4183 28.6634C30.3051 28.4873 30.3176 28.2482 30.4623 28.0847C33.1418 25.097 31.3052 23.1785 31.3052 21.6375C31.3052 19.2159 35.1987 15.8193 35.293 11.2716C35.3496 8.62984 33.7457 5.23954 31.0033 2.1952C30.9403 2.12601 30.9215 2.03166 30.9655 1.9436C31.0032 1.85554 31.085 1.80522 31.1794 1.80522H46.3571C52.8986 1.80522 58.2199 7.12653 58.2199 13.6681V22.4678L58.2136 22.4552Z" fill="#E6E3D6"/>
</svg>
