<svg width="297" height="48" viewBox="0 0 297 48" fill="none" xmlns="http://www.w3.org/2000/svg">
<path fill-rule="evenodd" clip-rule="evenodd" d="M155.413 23.1326C155.413 9.82284 164.903 0 175.211 0C185.459 0 195.188 9.69327 195.188 23.1293C195.188 36.5653 187.125 47.0227 175.212 47.0227C170.402 47.0227 166.248 45.3183 163.006 42.3995C161.312 40.8762 158.764 40.828 157.018 42.2949C153.945 44.8781 150.143 47.0244 144.261 47.0244C130.799 47.0244 122.768 37.4507 122.768 24.0197C122.768 11.4392 131.193 0 142.963 0C151.037 0 155.249 2.80748 155.249 2.80748V13.9643C154.641 13.9643 154.138 13.4875 154.104 12.8812C153.671 4.99531 148.465 1.94696 142.818 1.94696C132.907 1.94696 127.924 12.7732 127.924 22.8801C127.924 35.6716 134.229 45.1173 144.364 45.1173C149.464 45.1173 153.693 43.3863 156.865 40.6469C158.357 39.3611 158.805 37.2514 157.976 35.4656C156.317 31.8889 155.413 27.6827 155.413 23.1326ZM160.23 23.1941C160.23 35.2994 163.848 45.1156 175.212 45.1156C186.577 45.1156 190.369 35.1084 190.369 23.1309C190.369 11.1535 185.81 1.88051 175.271 1.88051C164.732 1.88051 160.23 11.0887 160.23 23.1941ZM108.93 34.1317C108.909 34.1068 108.879 34.0918 108.846 34.0901L108.131 34.042C108.065 34.0353 108.012 34.0835 108.002 34.1466C107.168 40.2417 104.206 44.3 97.6537 44.3C90.5364 44.3 86.6031 39.7283 86.6031 26.2973V6.88919C86.6031 2.8142 88.412 1.78922 91.1277 1.50349C91.528 1.4603 91.8519 1.15463 91.915 0.75594C91.92 0.721054 91.91 0.684507 91.8868 0.657927C91.8635 0.631348 91.8303 0.614735 91.7938 0.614735H77.5457C77.5108 0.614735 77.476 0.629686 77.4527 0.657927C77.4295 0.684507 77.4195 0.721054 77.4245 0.75594C77.4876 1.15297 77.8115 1.4603 78.2118 1.50349C80.9275 1.78922 82.7363 2.81586 82.7363 6.88919V39.9709C82.7363 44.0525 80.9541 45.0542 78.2766 45.3034C77.8381 45.345 77.4876 45.6739 77.4245 46.1058C77.4195 46.1407 77.4295 46.1772 77.4527 46.2038C77.476 46.2304 77.5092 46.2453 77.5457 46.2453H107.904C107.967 46.2453 108.02 46.1955 108.025 46.1324L108.143 44.4911L108.957 34.2197C108.96 34.1882 108.949 34.1549 108.927 34.13L108.93 34.1317ZM123.652 45.3084C120.823 45.0692 118.938 44.0708 118.938 39.9725V6.88919C118.938 2.79925 120.848 1.77593 123.717 1.49851C124.117 1.4603 124.441 1.15463 124.504 0.75594C124.509 0.721054 124.499 0.684507 124.476 0.657927C124.452 0.631348 124.419 0.614735 124.383 0.614735H109.628C109.593 0.614735 109.558 0.629686 109.535 0.657927C109.512 0.686168 109.502 0.721054 109.507 0.75594C109.57 1.15463 109.892 1.4603 110.294 1.50017C113.163 1.78424 115.073 2.80922 115.073 6.88919V39.9709C115.073 44.0592 113.189 45.0609 110.359 45.3051C109.92 45.3433 109.57 45.6722 109.507 46.1041C109.502 46.139 109.512 46.1739 109.535 46.2022C109.558 46.2287 109.591 46.2437 109.626 46.2437H124.383C124.417 46.2437 124.452 46.2287 124.476 46.2005C124.499 46.1739 124.509 46.1374 124.504 46.1025C124.439 45.6772 124.08 45.34 123.652 45.3051V45.3084ZM291.338 40.2898C292.949 44.4446 294.351 45.2087 296.882 45.3533H296.885C296.95 45.3566 297 45.4097 297 45.4745V46.1241C297 46.1905 296.947 46.2453 296.879 46.2453H283.586C283.519 46.2453 283.464 46.1922 283.464 46.1241V45.4762C283.464 45.4114 283.516 45.3582 283.581 45.3549C285.147 45.2885 286.843 45.0742 287.551 43.9861C288.074 43.1787 288.002 41.971 287.33 40.2898L285.217 34.944C284.557 33.2778 282.217 29.9188 277.287 29.9188C267.351 29.9188 263.524 34.0469 261.094 40.2898C260.458 41.9428 260.41 43.1422 260.946 43.9562C261.681 45.0709 263.448 45.2885 264.906 45.3533C264.971 45.3549 265.022 45.4097 265.022 45.4745V46.1224C265.022 46.1889 264.969 46.2437 264.901 46.2437H237.138C237.071 46.2437 237.016 46.1905 237.016 46.1224V45.4745C237.016 45.4097 237.068 45.3566 237.133 45.3533C238.483 45.2951 240.006 45.124 241.064 44.2801C242.107 43.4495 242.592 42.0806 242.592 39.9709V6.88919C242.592 3.2727 240.667 1.4387 236.867 1.4387C233.067 1.4387 231.14 3.2727 231.14 6.88919V46.1241C231.14 46.1905 231.087 46.2453 231.019 46.2453H229.278C229.238 46.2453 229.201 46.2254 229.178 46.1938L206.138 13.5707C204.551 11.3214 203.243 10.2764 202.365 10.5605C201.483 10.8413 201.016 12.4443 201.016 15.1987V39.9709C201.016 42.0823 201.504 43.4512 202.552 44.2801C203.62 45.124 205.167 45.2968 206.539 45.3533C206.604 45.3549 206.655 45.4097 206.655 45.4745V46.1224C206.655 46.1889 206.602 46.2437 206.534 46.2437H193.319C193.252 46.2437 193.198 46.1905 193.198 46.1224V45.4745C193.198 45.4097 193.249 45.3566 193.314 45.3533C194.664 45.2951 196.187 45.124 197.246 44.2801C198.289 43.4495 198.774 42.0806 198.774 39.9709V6.88919C198.774 2.61818 196.77 1.65965 193.311 1.44535C193.246 1.44203 193.196 1.38887 193.196 1.32408V0.737666C193.196 0.671217 193.249 0.616397 193.317 0.616397H202.091C202.131 0.616397 202.167 0.63467 202.19 0.667895L219.42 25.1992C222.538 29.6364 224.818 31.5518 226.393 31.0567C228.06 30.5285 228.869 27.3107 228.864 21.2156L228.897 6.88919C228.897 2.61818 226.896 1.65965 223.436 1.44535C223.371 1.44203 223.321 1.38887 223.321 1.32408V0.737666C223.321 0.671217 223.375 0.616397 223.443 0.616397H251.912C251.979 0.616397 252.033 0.669556 252.033 0.737666V1.32408C252.033 1.38887 251.984 1.44203 251.919 1.44535C250.547 1.52841 249.004 1.7261 247.962 2.57166C246.936 3.4056 246.458 4.77777 246.458 6.88919V39.9692C246.458 44.8316 250.459 45.3566 252.18 45.3566C255.316 45.3566 257.477 43.6987 258.789 40.2882L274.518 0.691152C274.537 0.644637 274.581 0.614735 274.631 0.614735H276.028C276.078 0.614735 276.123 0.646299 276.141 0.692813L291.338 40.2898ZM275.058 27.932C277.842 27.932 279.555 27.4037 280.294 26.3156L280.292 26.3173C281.179 25.0149 280.563 23.1659 279.731 21.0611L274.454 7.70818C274.394 7.55535 274.249 7.45733 274.087 7.45733C273.92 7.45733 273.778 7.55701 273.718 7.70984L268.232 21.9133C266.507 26.3787 267.371 27.932 270.263 27.932H275.058ZM76.9313 34.2594L76.217 34.2112C76.1473 34.2062 76.0974 34.2528 76.0875 34.3159C75.2537 40.4109 73.2987 44.4693 66.4703 44.4693C61.9441 44.4693 58.8081 43.6188 56.6023 41.7947C54.0029 39.6434 52.7388 36.12 52.7388 31.025C52.7388 25.93 54.4513 23.6641 57.9743 23.6641H63.1749C67.452 23.6641 68.4054 25.5828 68.5565 28.681C68.5598 28.7458 68.613 28.7989 68.6778 28.7989H69.3272C69.3953 28.7989 69.4485 28.7441 69.4485 28.6777V16.7085C69.4485 16.6404 69.3937 16.5873 69.3272 16.5873H68.6794C68.6147 16.5873 68.5615 16.6388 68.5582 16.7052C68.4103 19.8017 67.4586 21.7221 63.1766 21.7221H53.3368C53.0079 21.7221 52.7405 21.4547 52.7405 21.1257V8.30271C52.7405 5.31084 53.1973 2.3904 58.652 2.3904H66.281C73.292 2.3904 75.0128 6.72122 75.8267 11.4009C75.9097 11.876 76.315 12.2215 76.7917 12.2232C76.8266 12.2282 76.8598 12.2083 76.8831 12.1833C76.9063 12.1584 76.918 12.1235 76.9146 12.0886L75.9131 2.13457L75.737 0.722529C75.7287 0.661063 75.6772 0.61621 75.6158 0.61621H27.9917C27.9568 0.61621 27.9219 0.631161 27.8987 0.659402C27.8754 0.685982 27.8654 0.722529 27.8704 0.757414C27.9335 1.15445 28.2574 1.46178 28.6577 1.50331C31.4117 1.78571 33.2454 2.81069 33.2454 6.89067V21.4264C33.2454 21.9032 32.8584 22.2902 32.3817 22.2902H17.4975C11.3485 22.2902 9.50146 19.3383 9.50146 14.1702V6.89067C9.50146 2.80903 11.3352 1.78571 14.0891 1.50331C14.4894 1.46178 14.8133 1.15611 14.8764 0.757414C14.8814 0.722529 14.8715 0.685982 14.8482 0.659402C14.8249 0.632822 14.7917 0.61621 14.7552 0.61621H0.130116C0.0952351 0.61621 0.0603542 0.631161 0.0371002 0.659402C0.0138463 0.685982 0.0038803 0.722529 0.00886329 0.757414C0.0719811 1.15445 0.395875 1.46178 0.796176 1.50497C3.55011 1.79402 5.38385 2.82066 5.38385 6.89067V39.9724C5.38385 44.0656 3.55509 45.0657 0.811125 45.3082C0.380926 45.3464 0.0404222 45.6853 0.000558309 46.1123C-0.00276368 46.1455 0.00886329 46.1804 0.0321172 46.2053C0.0553712 46.2302 0.0885911 46.2452 0.121811 46.2452H14.7618C14.7967 46.2452 14.8283 46.2302 14.8515 46.2053C14.8748 46.1804 14.8864 46.1455 14.8831 46.1123C14.8432 45.6837 14.5011 45.3464 14.0725 45.3082C11.3286 45.0707 9.50146 44.0723 9.50146 39.9707V24.8419C9.50146 24.5063 9.77386 24.2339 10.1094 24.2339H20.5388C26.2609 24.2339 29.1577 24.9 30.8669 26.6111C32.5777 28.3222 33.2437 31.2177 33.2437 36.9406V39.9707C33.2437 44.0723 31.4166 45.0707 28.6727 45.3082C28.2441 45.3448 27.9036 45.6837 27.8621 46.1106C27.8588 46.1438 27.8704 46.1787 27.8937 46.2036C27.9169 46.2285 27.9501 46.2435 27.9834 46.2435H75.9895C76.0526 46.2435 76.1057 46.1953 76.1107 46.1322L77.0425 34.389C77.0459 34.3574 77.0342 34.3242 77.0126 34.2993C76.9911 34.2743 76.9612 34.2594 76.9279 34.2577L76.9313 34.2594ZM48.6229 6.88901V39.9707C48.6229 41.9824 47.8838 45.3581 42.9307 45.3581C40.8528 45.3581 37.3663 44.6587 37.3663 39.9707V6.88901C37.3663 1.97011 41.258 1.43852 42.9307 1.43852C44.6033 1.43852 48.6229 1.97011 48.6229 6.88901Z" fill="#03110B"/>
</svg>
