<svg width="1449" height="231" viewBox="0 0 1449 231" fill="none" xmlns="http://www.w3.org/2000/svg">
<path fill-rule="evenodd" clip-rule="evenodd" d="M758.229 113.66C758.229 48.7248 804.525 0.80127 854.816 0.80127C904.816 0.80127 952.279 48.0927 952.279 113.644C952.279 179.196 912.943 230.215 854.824 230.215C831.356 230.215 811.089 221.9 795.27 207.66C787.005 200.227 774.574 199.992 766.057 207.149C751.065 219.752 732.516 230.223 703.821 230.223C638.141 230.223 598.959 183.515 598.959 117.988C598.959 56.6108 640.061 0.80127 697.484 0.80127C736.875 0.80127 757.426 14.4983 757.426 14.4983V68.9301C754.46 68.9301 752.005 66.604 751.843 63.6457C749.728 25.1723 724.331 10.3001 696.779 10.3001C648.424 10.3001 624.113 63.1189 624.113 112.428C624.113 174.835 654.875 220.919 704.323 220.919C729.201 220.919 749.833 212.474 765.311 199.109C772.588 192.836 774.776 182.543 770.733 173.83C762.637 156.381 758.229 135.859 758.229 113.66ZM781.729 113.96C781.729 173.02 799.379 220.911 854.824 220.911C910.269 220.911 928.77 172.088 928.77 113.652C928.77 55.2168 906.525 9.97588 855.108 9.97588C803.69 9.97588 781.729 54.9007 781.729 113.96ZM531.448 167.323C531.342 167.201 531.196 167.128 531.034 167.12L527.55 166.885C527.226 166.852 526.966 167.087 526.918 167.395C522.85 197.132 508.401 216.932 476.432 216.932C441.708 216.932 422.518 194.628 422.518 129.1V34.4122C422.518 14.5312 431.343 9.53057 444.593 8.13654C446.546 7.92582 448.126 6.43454 448.434 4.48939C448.458 4.31919 448.41 4.14089 448.296 4.01121C448.183 3.88153 448.021 3.80049 447.842 3.80049H378.329C378.159 3.80049 377.989 3.87343 377.875 4.01121C377.762 4.14089 377.713 4.31919 377.738 4.48939C378.046 6.42643 379.626 7.92582 381.579 8.13654C394.828 9.53057 403.653 14.5393 403.653 34.4122V195.811C403.653 215.724 394.958 220.611 381.895 221.827C379.755 222.03 378.046 223.635 377.738 225.742C377.713 225.912 377.762 226.09 377.875 226.22C377.989 226.35 378.151 226.423 378.329 226.423H526.44C526.748 226.423 527.007 226.179 527.031 225.871L527.607 217.864L531.577 167.752C531.594 167.598 531.537 167.436 531.432 167.314L531.448 167.323ZM603.271 221.852C589.47 220.684 580.273 215.813 580.273 195.819V34.4122C580.273 14.4583 589.592 9.46573 603.587 8.11223C605.54 7.92582 607.12 6.43454 607.428 4.48939C607.452 4.31919 607.404 4.14089 607.29 4.01121C607.177 3.88153 607.015 3.80049 606.837 3.80049H534.852C534.682 3.80049 534.511 3.87343 534.398 4.01121C534.285 4.14899 534.236 4.31919 534.26 4.48939C534.568 6.43454 536.14 7.92582 538.101 8.12033C552.096 9.50625 561.416 14.5069 561.416 34.4122V195.811C561.416 215.757 552.226 220.644 538.417 221.835C536.278 222.022 534.568 223.626 534.26 225.734C534.236 225.904 534.285 226.074 534.398 226.212C534.511 226.342 534.674 226.414 534.844 226.414H606.837C607.007 226.414 607.177 226.342 607.29 226.204C607.404 226.074 607.452 225.896 607.428 225.726C607.112 223.651 605.362 222.005 603.271 221.835V221.852ZM1421.37 197.367C1429.24 217.637 1436.07 221.365 1448.42 222.07H1448.44C1448.76 222.087 1449 222.346 1449 222.662V225.831C1449 226.155 1448.74 226.423 1448.41 226.423H1383.56C1383.23 226.423 1382.96 226.163 1382.96 225.831V222.67C1382.96 222.354 1383.21 222.095 1383.53 222.078C1391.17 221.754 1399.45 220.709 1402.9 215.4C1405.45 211.461 1405.1 205.569 1401.82 197.367L1391.51 171.286C1388.3 163.157 1376.88 146.769 1352.83 146.769C1304.35 146.769 1285.68 166.909 1273.82 197.367C1270.72 205.431 1270.48 211.283 1273.1 215.254C1276.68 220.692 1285.31 221.754 1292.42 222.07C1292.74 222.078 1292.99 222.346 1292.99 222.662V225.823C1292.99 226.147 1292.73 226.414 1292.4 226.414H1156.94C1156.62 226.414 1156.35 226.155 1156.35 225.823V222.662C1156.35 222.346 1156.6 222.087 1156.92 222.07C1163.51 221.787 1170.94 220.952 1176.1 216.835C1181.19 212.782 1183.56 206.104 1183.56 195.811V34.4122C1183.56 16.7681 1174.17 7.82046 1155.62 7.82046C1137.08 7.82046 1127.68 16.7681 1127.68 34.4122V225.831C1127.68 226.155 1127.42 226.423 1127.09 226.423H1118.6C1118.4 226.423 1118.23 226.325 1118.11 226.171L1005.71 67.0097C997.959 56.0358 991.582 50.9379 987.295 52.3238C982.992 53.6935 980.715 61.5146 980.715 74.9523V195.811C980.715 206.112 983.097 212.79 988.211 216.835C993.421 220.952 1000.97 221.795 1007.66 222.07C1007.98 222.078 1008.23 222.346 1008.23 222.662V225.823C1008.23 226.147 1007.97 226.414 1007.64 226.414H943.162C942.838 226.414 942.571 226.155 942.571 225.823V222.662C942.571 222.346 942.822 222.087 943.138 222.07C949.726 221.787 957.157 220.952 962.319 216.835C967.408 212.782 969.775 206.104 969.775 195.811V34.4122C969.775 13.5749 960.002 8.89839 943.122 7.85288C942.806 7.83667 942.563 7.57731 942.563 7.26123V4.40024C942.563 4.07605 942.822 3.80859 943.154 3.80859H985.958C986.152 3.80859 986.331 3.89774 986.444 4.05984L1070.5 123.743C1085.71 145.391 1096.84 154.736 1104.52 152.321C1112.66 149.743 1116.6 134.044 1116.58 104.308L1116.74 34.4122C1116.74 13.5749 1106.98 8.89839 1090.1 7.85288C1089.78 7.83667 1089.54 7.57731 1089.54 7.26123V4.40024C1089.54 4.07605 1089.8 3.80859 1090.13 3.80859H1229.03C1229.35 3.80859 1229.62 4.06794 1229.62 4.40024V7.26123C1229.62 7.57731 1229.38 7.83667 1229.06 7.85288C1222.37 8.25811 1214.84 9.22258 1209.76 13.3479C1204.75 17.4165 1202.41 24.1111 1202.41 34.4122V195.803C1202.41 219.525 1221.94 222.087 1230.33 222.087C1245.63 222.087 1256.17 213.998 1262.58 197.359L1339.32 4.17331C1339.41 3.94637 1339.63 3.80049 1339.87 3.80049H1346.68C1346.93 3.80049 1347.15 3.95448 1347.23 4.18141L1421.37 197.367ZM1341.95 137.075C1355.53 137.075 1363.89 134.498 1367.49 129.19L1367.49 129.198C1371.81 122.843 1368.81 113.823 1364.75 103.554L1339 38.4079C1338.71 37.6623 1338 37.1841 1337.21 37.1841C1336.4 37.1841 1335.7 37.6704 1335.41 38.416L1308.65 107.712C1300.23 129.498 1304.45 137.075 1318.56 137.075H1341.95ZM375.331 167.946L371.847 167.711C371.506 167.686 371.263 167.913 371.215 168.221C367.147 197.958 357.609 217.758 324.295 217.758C302.212 217.758 286.912 213.608 276.151 204.709C263.469 194.213 257.302 177.023 257.302 152.166C257.302 127.308 265.657 116.253 282.844 116.253H308.217C329.084 116.253 333.735 125.614 334.473 140.73C334.489 141.046 334.748 141.305 335.064 141.305H338.233C338.565 141.305 338.824 141.038 338.824 140.714V82.3186C338.824 81.9863 338.557 81.727 338.233 81.727H335.072C334.756 81.727 334.497 81.9782 334.481 82.3024C333.76 97.4097 329.116 106.779 308.225 106.779H260.219C258.615 106.779 257.31 105.474 257.31 103.869V41.3084C257.31 26.7117 259.538 12.4635 286.151 12.4635H323.371C357.576 12.4635 365.972 33.5927 369.942 56.4239C370.348 58.7418 372.325 60.4276 374.651 60.4357C374.821 60.46 374.983 60.3628 375.096 60.2412C375.21 60.1196 375.267 59.9494 375.25 59.7792L370.364 11.2154L369.505 4.32634C369.464 4.02646 369.213 3.80763 368.913 3.80763H136.565C136.395 3.80763 136.225 3.88058 136.112 4.01836C135.998 4.14803 135.95 4.32634 135.974 4.49654C136.282 6.43358 137.862 7.93297 139.815 8.13558C153.251 9.5134 162.197 14.514 162.197 34.4194V105.336C162.197 107.662 160.309 109.551 157.983 109.551H85.3666C55.3669 109.551 46.3556 95.1485 46.3556 69.9345V34.4194C46.3556 14.5059 55.302 9.5134 68.7379 8.13558C70.6909 7.93297 72.2711 6.44169 72.579 4.49654C72.6033 4.32634 72.5547 4.14803 72.4412 4.01836C72.3278 3.88868 72.1657 3.80763 71.9874 3.80763H0.634809C0.464632 3.80763 0.294455 3.88058 0.181004 4.01836C0.0675531 4.14803 0.0189312 4.32634 0.0432421 4.49654C0.351181 6.43358 1.93139 7.93297 3.88437 8.14369C17.3202 9.55392 26.2667 14.5627 26.2667 34.4194V195.818C26.2667 215.788 17.3445 220.667 3.9573 221.851C1.85846 222.037 0.197211 223.69 0.00272387 225.773C-0.0134834 225.935 0.0432421 226.106 0.156693 226.227C0.270144 226.349 0.432217 226.422 0.59429 226.422H72.0199C72.19 226.422 72.344 226.349 72.4575 226.227C72.5709 226.106 72.6276 225.935 72.6114 225.773C72.4169 223.682 70.7476 222.037 68.6568 221.851C55.2696 220.692 46.3556 215.821 46.3556 195.81V122C46.3556 120.362 47.6846 119.033 49.3215 119.033H100.204C128.121 119.033 142.254 122.283 150.593 130.631C158.94 138.979 162.189 153.106 162.189 181.027V195.81C162.189 215.821 153.275 220.692 139.888 221.851C137.797 222.029 136.136 223.682 135.933 225.765C135.917 225.927 135.974 226.097 136.087 226.219C136.201 226.341 136.363 226.414 136.525 226.414H370.737C371.045 226.414 371.304 226.178 371.328 225.871L375.874 168.578C375.891 168.424 375.834 168.262 375.728 168.14C375.623 168.019 375.477 167.946 375.315 167.938L375.331 167.946ZM237.221 34.4113V195.81C237.221 205.625 233.615 222.094 209.45 222.094C199.312 222.094 182.302 218.682 182.302 195.81V34.4113C182.302 10.413 201.289 7.8195 209.45 7.8195C217.61 7.8195 237.221 10.413 237.221 34.4113Z" fill="#E6E3D6"/>
</svg>
